<svg width="1363" height="163" viewBox="0 0 1363 163" fill="none" xmlns="http://www.w3.org/2000/svg">
<path d="M0 15C0 6.71573 6.71573 0 15 0H37V163H15C6.71573 163 0 156.284 0 148V15Z" fill="#424242"/>
<rect width="1097" height="163" transform="translate(37)" fill="#F0F0F0"/>
<path d="M105.973 58.2578V61H96.8906V58.2578H105.973ZM98.0391 43.9375V61H94.5234V43.9375H98.0391ZM104.789 50.8867V53.5586H96.8906V50.8867H104.789ZM105.961 43.9375V46.6914H96.8906V43.9375H105.961ZM111.82 58.5391L114.633 48.3203H118.16L113.883 61H111.75L111.82 58.5391ZM109.887 48.3203L112.711 58.5508L112.77 61H110.625L106.348 48.3203H109.887ZM125.344 61.2344C124.359 61.2344 123.477 61.0781 122.695 60.7656C121.914 60.4453 121.25 60.0039 120.703 59.4414C120.164 58.8789 119.75 58.2266 119.461 57.4844C119.172 56.7344 119.027 55.9375 119.027 55.0938V54.625C119.027 53.6641 119.164 52.7852 119.438 51.9883C119.711 51.1914 120.102 50.5 120.609 49.9141C121.125 49.3281 121.75 48.8789 122.484 48.5664C123.219 48.2461 124.047 48.0859 124.969 48.0859C125.867 48.0859 126.664 48.2344 127.359 48.5312C128.055 48.8281 128.637 49.25 129.105 49.7969C129.582 50.3438 129.941 51 130.184 51.7656C130.426 52.5234 130.547 53.3672 130.547 54.2969V55.7031H120.469V53.4531H127.23V53.1953C127.23 52.7266 127.145 52.3086 126.973 51.9414C126.809 51.5664 126.559 51.2695 126.223 51.0508C125.887 50.832 125.457 50.7227 124.934 50.7227C124.488 50.7227 124.105 50.8203 123.785 51.0156C123.465 51.2109 123.203 51.4844 123 51.8359C122.805 52.1875 122.656 52.6016 122.555 53.0781C122.461 53.5469 122.414 54.0625 122.414 54.625V55.0938C122.414 55.6016 122.484 56.0703 122.625 56.5C122.773 56.9297 122.98 57.3008 123.246 57.6133C123.52 57.9258 123.848 58.168 124.23 58.3398C124.621 58.5117 125.062 58.5977 125.555 58.5977C126.164 58.5977 126.73 58.4805 127.254 58.2461C127.785 58.0039 128.242 57.6406 128.625 57.1562L130.266 58.9375C130 59.3203 129.637 59.6875 129.176 60.0391C128.723 60.3906 128.176 60.6797 127.535 60.9062C126.895 61.125 126.164 61.2344 125.344 61.2344ZM135.844 51.0859V61H132.469V48.3203H135.645L135.844 51.0859ZM139.664 48.2383L139.605 51.3672C139.441 51.3438 139.242 51.3242 139.008 51.3086C138.781 51.2852 138.574 51.2734 138.387 51.2734C137.91 51.2734 137.496 51.3359 137.145 51.4609C136.801 51.5781 136.512 51.7539 136.277 51.9883C136.051 52.2227 135.879 52.5078 135.762 52.8438C135.652 53.1797 135.59 53.5625 135.574 53.9922L134.895 53.7812C134.895 52.9609 134.977 52.207 135.141 51.5195C135.305 50.8242 135.543 50.2188 135.855 49.7031C136.176 49.1875 136.566 48.7891 137.027 48.5078C137.488 48.2266 138.016 48.0859 138.609 48.0859C138.797 48.0859 138.988 48.1016 139.184 48.1328C139.379 48.1562 139.539 48.1914 139.664 48.2383ZM154.383 46.8555L149.742 61H146.004L152.344 43.9375H154.723L154.383 46.8555ZM158.238 61L153.586 46.8555L153.211 43.9375H155.613L161.988 61H158.238ZM158.027 54.6484V57.4023H149.016V54.6484H158.027ZM167.66 61H164.262V47.1953C164.262 46.2344 164.449 45.4258 164.824 44.7695C165.207 44.1055 165.742 43.6055 166.43 43.2695C167.125 42.9258 167.949 42.7539 168.902 42.7539C169.215 42.7539 169.516 42.7773 169.805 42.8242C170.094 42.8633 170.375 42.9141 170.648 42.9766L170.613 45.5195C170.465 45.4805 170.309 45.4531 170.145 45.4375C169.98 45.4219 169.789 45.4141 169.57 45.4141C169.164 45.4141 168.816 45.4844 168.527 45.625C168.246 45.7578 168.031 45.957 167.883 46.2227C167.734 46.4883 167.66 46.8125 167.66 47.1953V61ZM170.191 48.3203V50.7109H162.375V48.3203H170.191ZM178.172 48.3203V50.7109H170.789V48.3203H178.172ZM172.617 45.1914H175.992V57.1797C175.992 57.5469 176.039 57.8281 176.133 58.0234C176.234 58.2188 176.383 58.3555 176.578 58.4336C176.773 58.5039 177.02 58.5391 177.316 58.5391C177.527 58.5391 177.715 58.5312 177.879 58.5156C178.051 58.4922 178.195 58.4688 178.312 58.4453L178.324 60.9297C178.035 61.0234 177.723 61.0977 177.387 61.1523C177.051 61.207 176.68 61.2344 176.273 61.2344C175.531 61.2344 174.883 61.1133 174.328 60.8711C173.781 60.6211 173.359 60.2227 173.062 59.6758C172.766 59.1289 172.617 58.4102 172.617 57.5195V45.1914ZM185.93 61.2344C184.945 61.2344 184.062 61.0781 183.281 60.7656C182.5 60.4453 181.836 60.0039 181.289 59.4414C180.75 58.8789 180.336 58.2266 180.047 57.4844C179.758 56.7344 179.613 55.9375 179.613 55.0938V54.625C179.613 53.6641 179.75 52.7852 180.023 51.9883C180.297 51.1914 180.688 50.5 181.195 49.9141C181.711 49.3281 182.336 48.8789 183.07 48.5664C183.805 48.2461 184.633 48.0859 185.555 48.0859C186.453 48.0859 187.25 48.2344 187.945 48.5312C188.641 48.8281 189.223 49.25 189.691 49.7969C190.168 50.3438 190.527 51 190.77 51.7656C191.012 52.5234 191.133 53.3672 191.133 54.2969V55.7031H181.055V53.4531H187.816V53.1953C187.816 52.7266 187.73 52.3086 187.559 51.9414C187.395 51.5664 187.145 51.2695 186.809 51.0508C186.473 50.832 186.043 50.7227 185.52 50.7227C185.074 50.7227 184.691 50.8203 184.371 51.0156C184.051 51.2109 183.789 51.4844 183.586 51.8359C183.391 52.1875 183.242 52.6016 183.141 53.0781C183.047 53.5469 183 54.0625 183 54.625V55.0938C183 55.6016 183.07 56.0703 183.211 56.5C183.359 56.9297 183.566 57.3008 183.832 57.6133C184.105 57.9258 184.434 58.168 184.816 58.3398C185.207 58.5117 185.648 58.5977 186.141 58.5977C186.75 58.5977 187.316 58.4805 187.84 58.2461C188.371 58.0039 188.828 57.6406 189.211 57.1562L190.852 58.9375C190.586 59.3203 190.223 59.6875 189.762 60.0391C189.309 60.3906 188.762 60.6797 188.121 60.9062C187.48 61.125 186.75 61.2344 185.93 61.2344ZM196.43 51.0859V61H193.055V48.3203H196.23L196.43 51.0859ZM200.25 48.2383L200.191 51.3672C200.027 51.3438 199.828 51.3242 199.594 51.3086C199.367 51.2852 199.16 51.2734 198.973 51.2734C198.496 51.2734 198.082 51.3359 197.73 51.4609C197.387 51.5781 197.098 51.7539 196.863 51.9883C196.637 52.2227 196.465 52.5078 196.348 52.8438C196.238 53.1797 196.176 53.5625 196.16 53.9922L195.48 53.7812C195.48 52.9609 195.562 52.207 195.727 51.5195C195.891 50.8242 196.129 50.2188 196.441 49.7031C196.762 49.1875 197.152 48.7891 197.613 48.5078C198.074 48.2266 198.602 48.0859 199.195 48.0859C199.383 48.0859 199.574 48.1016 199.77 48.1328C199.965 48.1562 200.125 48.1914 200.25 48.2383ZM219.48 58.2578V61H210.398V58.2578H219.48ZM211.547 43.9375V61H208.031V43.9375H211.547ZM218.297 50.8867V53.5586H210.398V50.8867H218.297ZM219.469 43.9375V46.6914H210.398V43.9375H219.469ZM224.883 43V61H221.496V43H224.883ZM233.508 61.2344C232.523 61.2344 231.641 61.0781 230.859 60.7656C230.078 60.4453 229.414 60.0039 228.867 59.4414C228.328 58.8789 227.914 58.2266 227.625 57.4844C227.336 56.7344 227.191 55.9375 227.191 55.0938V54.625C227.191 53.6641 227.328 52.7852 227.602 51.9883C227.875 51.1914 228.266 50.5 228.773 49.9141C229.289 49.3281 229.914 48.8789 230.648 48.5664C231.383 48.2461 232.211 48.0859 233.133 48.0859C234.031 48.0859 234.828 48.2344 235.523 48.5312C236.219 48.8281 236.801 49.25 237.27 49.7969C237.746 50.3438 238.105 51 238.348 51.7656C238.59 52.5234 238.711 53.3672 238.711 54.2969V55.7031H228.633V53.4531H235.395V53.1953C235.395 52.7266 235.309 52.3086 235.137 51.9414C234.973 51.5664 234.723 51.2695 234.387 51.0508C234.051 50.832 233.621 50.7227 233.098 50.7227C232.652 50.7227 232.27 50.8203 231.949 51.0156C231.629 51.2109 231.367 51.4844 231.164 51.8359C230.969 52.1875 230.82 52.6016 230.719 53.0781C230.625 53.5469 230.578 54.0625 230.578 54.625V55.0938C230.578 55.6016 230.648 56.0703 230.789 56.5C230.938 56.9297 231.145 57.3008 231.41 57.6133C231.684 57.9258 232.012 58.168 232.395 58.3398C232.785 58.5117 233.227 58.5977 233.719 58.5977C234.328 58.5977 234.895 58.4805 235.418 58.2461C235.949 58.0039 236.406 57.6406 236.789 57.1562L238.43 58.9375C238.164 59.3203 237.801 59.6875 237.34 60.0391C236.887 60.3906 236.34 60.6797 235.699 60.9062C235.059 61.125 234.328 61.2344 233.508 61.2344ZM248.66 48.3203H251.719V60.5781C251.719 61.7344 251.461 62.7148 250.945 63.5195C250.438 64.332 249.727 64.9453 248.812 65.3594C247.898 65.7812 246.836 65.9922 245.625 65.9922C245.094 65.9922 244.531 65.9219 243.938 65.7812C243.352 65.6406 242.789 65.4219 242.25 65.125C241.719 64.8281 241.273 64.4531 240.914 64L242.402 62.0078C242.793 62.4609 243.246 62.8125 243.762 63.0625C244.277 63.3203 244.848 63.4492 245.473 63.4492C246.082 63.4492 246.598 63.3359 247.02 63.1094C247.441 62.8906 247.766 62.5664 247.992 62.1367C248.219 61.7148 248.332 61.2031 248.332 60.6016V51.25L248.66 48.3203ZM240.129 54.8125V54.5664C240.129 53.5977 240.246 52.7188 240.48 51.9297C240.723 51.1328 241.062 50.4492 241.5 49.8789C241.945 49.3086 242.484 48.8672 243.117 48.5547C243.75 48.2422 244.465 48.0859 245.262 48.0859C246.105 48.0859 246.812 48.2422 247.383 48.5547C247.953 48.8672 248.422 49.3125 248.789 49.8906C249.156 50.4609 249.441 51.1367 249.645 51.918C249.855 52.6914 250.02 53.5391 250.137 54.4609V55C250.02 55.8828 249.844 56.7031 249.609 57.4609C249.375 58.2188 249.066 58.8828 248.684 59.4531C248.301 60.0156 247.824 60.4531 247.254 60.7656C246.691 61.0781 246.02 61.2344 245.238 61.2344C244.457 61.2344 243.75 61.0742 243.117 60.7539C242.492 60.4336 241.957 59.9844 241.512 59.4062C241.066 58.8281 240.723 58.1484 240.48 57.3672C240.246 56.5859 240.129 55.7344 240.129 54.8125ZM243.504 54.5664V54.8125C243.504 55.3359 243.555 55.8242 243.656 56.2773C243.758 56.7305 243.914 57.1328 244.125 57.4844C244.344 57.8281 244.613 58.0977 244.934 58.293C245.262 58.4805 245.648 58.5742 246.094 58.5742C246.711 58.5742 247.215 58.4453 247.605 58.1875C247.996 57.9219 248.289 57.5586 248.484 57.0977C248.68 56.6367 248.793 56.1055 248.824 55.5039V53.9688C248.809 53.4766 248.742 53.0352 248.625 52.6445C248.508 52.2461 248.344 51.9062 248.133 51.625C247.922 51.3438 247.648 51.125 247.312 50.9688C246.977 50.8125 246.578 50.7344 246.117 50.7344C245.672 50.7344 245.285 50.8359 244.957 51.0391C244.637 51.2344 244.367 51.5039 244.148 51.8477C243.938 52.1914 243.777 52.5977 243.668 53.0664C243.559 53.5273 243.504 54.0273 243.504 54.5664ZM261.188 58.1406V52.4922C261.188 52.0859 261.121 51.7383 260.988 51.4492C260.855 51.1523 260.648 50.9219 260.367 50.7578C260.094 50.5938 259.738 50.5117 259.301 50.5117C258.926 50.5117 258.602 50.5781 258.328 50.7109C258.055 50.8359 257.844 51.0195 257.695 51.2617C257.547 51.4961 257.473 51.7734 257.473 52.0938H254.098C254.098 51.5547 254.223 51.043 254.473 50.5586C254.723 50.0742 255.086 49.6484 255.562 49.2812C256.039 48.9062 256.605 48.6133 257.262 48.4023C257.926 48.1914 258.668 48.0859 259.488 48.0859C260.473 48.0859 261.348 48.25 262.113 48.5781C262.879 48.9062 263.48 49.3984 263.918 50.0547C264.363 50.7109 264.586 51.5312 264.586 52.5156V57.9414C264.586 58.6367 264.629 59.207 264.715 59.6523C264.801 60.0898 264.926 60.4727 265.09 60.8008V61H261.68C261.516 60.6562 261.391 60.2266 261.305 59.7109C261.227 59.1875 261.188 58.6641 261.188 58.1406ZM261.633 53.2773L261.656 55.1875H259.77C259.324 55.1875 258.938 55.2383 258.609 55.3398C258.281 55.4414 258.012 55.5859 257.801 55.7734C257.59 55.9531 257.434 56.1641 257.332 56.4062C257.238 56.6484 257.191 56.9141 257.191 57.2031C257.191 57.4922 257.258 57.7539 257.391 57.9883C257.523 58.2148 257.715 58.3945 257.965 58.5273C258.215 58.6523 258.508 58.7148 258.844 58.7148C259.352 58.7148 259.793 58.6133 260.168 58.4102C260.543 58.207 260.832 57.957 261.035 57.6602C261.246 57.3633 261.355 57.082 261.363 56.8164L262.254 58.2461C262.129 58.5664 261.957 58.8984 261.738 59.2422C261.527 59.5859 261.258 59.9102 260.93 60.2148C260.602 60.5117 260.207 60.7578 259.746 60.9531C259.285 61.1406 258.738 61.2344 258.105 61.2344C257.301 61.2344 256.57 61.0742 255.914 60.7539C255.266 60.4258 254.75 59.9766 254.367 59.4062C253.992 58.8281 253.805 58.1719 253.805 57.4375C253.805 56.7734 253.93 56.1836 254.18 55.668C254.43 55.1523 254.797 54.7188 255.281 54.3672C255.773 54.0078 256.387 53.7383 257.121 53.5586C257.855 53.3711 258.707 53.2773 259.676 53.2773H261.633ZM270.492 51.0273V61H267.117V48.3203H270.281L270.492 51.0273ZM270 54.2148H269.086C269.086 53.2773 269.207 52.4336 269.449 51.6836C269.691 50.9258 270.031 50.2812 270.469 49.75C270.906 49.2109 271.426 48.8008 272.027 48.5195C272.637 48.2305 273.316 48.0859 274.066 48.0859C274.66 48.0859 275.203 48.1719 275.695 48.3438C276.188 48.5156 276.609 48.7891 276.961 49.1641C277.32 49.5391 277.594 50.0352 277.781 50.6523C277.977 51.2695 278.074 52.0234 278.074 52.9141V61H274.676V52.9023C274.676 52.3398 274.598 51.9023 274.441 51.5898C274.285 51.2773 274.055 51.0586 273.75 50.9336C273.453 50.8008 273.086 50.7344 272.648 50.7344C272.195 50.7344 271.801 50.8242 271.465 51.0039C271.137 51.1836 270.863 51.4336 270.645 51.7539C270.434 52.0664 270.273 52.4336 270.164 52.8555C270.055 53.2773 270 53.7305 270 54.2148ZM285.879 58.5977C286.293 58.5977 286.66 58.5195 286.98 58.3633C287.301 58.1992 287.551 57.9727 287.73 57.6836C287.918 57.3867 288.016 57.0391 288.023 56.6406H291.199C291.191 57.5312 290.953 58.3242 290.484 59.0195C290.016 59.707 289.387 60.25 288.598 60.6484C287.809 61.0391 286.926 61.2344 285.949 61.2344C284.965 61.2344 284.105 61.0703 283.371 60.7422C282.645 60.4141 282.039 59.9609 281.555 59.3828C281.07 58.7969 280.707 58.1172 280.465 57.3438C280.223 56.5625 280.102 55.7266 280.102 54.8359V54.4961C280.102 53.5977 280.223 52.7617 280.465 51.9883C280.707 51.207 281.07 50.5273 281.555 49.9492C282.039 49.3633 282.645 48.9062 283.371 48.5781C284.098 48.25 284.949 48.0859 285.926 48.0859C286.965 48.0859 287.875 48.2852 288.656 48.6836C289.445 49.082 290.062 49.6523 290.508 50.3945C290.961 51.1289 291.191 52 291.199 53.0078H288.023C288.016 52.5859 287.926 52.2031 287.754 51.8594C287.59 51.5156 287.348 51.2422 287.027 51.0391C286.715 50.8281 286.328 50.7227 285.867 50.7227C285.375 50.7227 284.973 50.8281 284.66 51.0391C284.348 51.2422 284.105 51.5234 283.934 51.8828C283.762 52.2344 283.641 52.6367 283.57 53.0898C283.508 53.5352 283.477 54.0039 283.477 54.4961V54.8359C283.477 55.3281 283.508 55.8008 283.57 56.2539C283.633 56.707 283.75 57.1094 283.922 57.4609C284.102 57.8125 284.348 58.0898 284.66 58.293C284.973 58.4961 285.379 58.5977 285.879 58.5977ZM298.992 61.2344C298.008 61.2344 297.125 61.0781 296.344 60.7656C295.562 60.4453 294.898 60.0039 294.352 59.4414C293.812 58.8789 293.398 58.2266 293.109 57.4844C292.82 56.7344 292.676 55.9375 292.676 55.0938V54.625C292.676 53.6641 292.812 52.7852 293.086 51.9883C293.359 51.1914 293.75 50.5 294.258 49.9141C294.773 49.3281 295.398 48.8789 296.133 48.5664C296.867 48.2461 297.695 48.0859 298.617 48.0859C299.516 48.0859 300.312 48.2344 301.008 48.5312C301.703 48.8281 302.285 49.25 302.754 49.7969C303.23 50.3438 303.59 51 303.832 51.7656C304.074 52.5234 304.195 53.3672 304.195 54.2969V55.7031H294.117V53.4531H300.879V53.1953C300.879 52.7266 300.793 52.3086 300.621 51.9414C300.457 51.5664 300.207 51.2695 299.871 51.0508C299.535 50.832 299.105 50.7227 298.582 50.7227C298.137 50.7227 297.754 50.8203 297.434 51.0156C297.113 51.2109 296.852 51.4844 296.648 51.8359C296.453 52.1875 296.305 52.6016 296.203 53.0781C296.109 53.5469 296.062 54.0625 296.062 54.625V55.0938C296.062 55.6016 296.133 56.0703 296.273 56.5C296.422 56.9297 296.629 57.3008 296.895 57.6133C297.168 57.9258 297.496 58.168 297.879 58.3398C298.27 58.5117 298.711 58.5977 299.203 58.5977C299.812 58.5977 300.379 58.4805 300.902 58.2461C301.434 58.0039 301.891 57.6406 302.273 57.1562L303.914 58.9375C303.648 59.3203 303.285 59.6875 302.824 60.0391C302.371 60.3906 301.824 60.6797 301.184 60.9062C300.543 61.125 299.812 61.2344 298.992 61.2344Z" fill="#888888"/>
<path d="M106.688 119H99.1172L99.1641 112.672H106.688C108.25 112.672 109.57 112.297 110.648 111.547C111.742 110.797 112.57 109.68 113.133 108.195C113.711 106.695 114 104.852 114 102.664V101.188C114 99.5469 113.836 98.1094 113.508 96.875C113.195 95.625 112.727 94.5859 112.102 93.7578C111.477 92.9141 110.695 92.2812 109.758 91.8594C108.836 91.4375 107.773 91.2266 106.57 91.2266H98.9766V84.875H106.57C108.883 84.875 111 85.2734 112.922 86.0703C114.859 86.8516 116.531 87.9766 117.938 89.4453C119.359 90.8984 120.453 92.625 121.219 94.625C122 96.6094 122.391 98.8125 122.391 101.234V102.664C122.391 105.07 122 107.273 121.219 109.273C120.453 111.273 119.367 113 117.961 114.453C116.555 115.906 114.891 117.031 112.969 117.828C111.062 118.609 108.969 119 106.688 119ZM103.828 84.875V119H95.6016V84.875H103.828ZM139.477 112.625V102.172C139.477 101.453 139.375 100.836 139.172 100.32C138.969 99.8047 138.648 99.4062 138.211 99.125C137.773 98.8281 137.188 98.6797 136.453 98.6797C135.859 98.6797 135.352 98.7812 134.93 98.9844C134.508 99.1875 134.188 99.4922 133.969 99.8984C133.75 100.305 133.641 100.82 133.641 101.445H125.742C125.742 100.273 126 99.1875 126.516 98.1875C127.047 97.1719 127.797 96.2891 128.766 95.5391C129.75 94.7891 130.922 94.2109 132.281 93.8047C133.656 93.3828 135.188 93.1719 136.875 93.1719C138.891 93.1719 140.688 93.5078 142.266 94.1797C143.859 94.8516 145.117 95.8594 146.039 97.2031C146.961 98.5312 147.422 100.203 147.422 102.219V112.602C147.422 114.258 147.516 115.516 147.703 116.375C147.891 117.219 148.156 117.961 148.5 118.602V119H140.578C140.203 118.219 139.922 117.266 139.734 116.141C139.562 115 139.477 113.828 139.477 112.625ZM140.438 103.508L140.484 107.727H136.992C136.258 107.727 135.633 107.828 135.117 108.031C134.617 108.234 134.211 108.516 133.898 108.875C133.602 109.219 133.383 109.609 133.242 110.047C133.117 110.484 133.055 110.945 133.055 111.43C133.055 111.898 133.164 112.32 133.383 112.695C133.617 113.055 133.93 113.336 134.32 113.539C134.711 113.742 135.148 113.844 135.633 113.844C136.508 113.844 137.25 113.68 137.859 113.352C138.484 113.008 138.961 112.594 139.289 112.109C139.617 111.625 139.781 111.172 139.781 110.75L141.516 113.984C141.203 114.609 140.844 115.242 140.438 115.883C140.047 116.523 139.555 117.117 138.961 117.664C138.383 118.195 137.672 118.633 136.828 118.977C135.984 119.305 134.961 119.469 133.758 119.469C132.195 119.469 130.758 119.148 129.445 118.508C128.148 117.867 127.109 116.977 126.328 115.836C125.547 114.68 125.156 113.352 125.156 111.852C125.156 110.539 125.391 109.367 125.859 108.336C126.344 107.305 127.07 106.43 128.039 105.711C129.008 104.992 130.242 104.445 131.742 104.07C133.242 103.695 135.008 103.508 137.039 103.508H140.438ZM165.164 93.6406V99.125H149.883V93.6406H165.164ZM153.094 87.3359H160.992V110.727C160.992 111.398 161.07 111.922 161.227 112.297C161.383 112.656 161.648 112.914 162.023 113.07C162.414 113.211 162.93 113.281 163.57 113.281C164.023 113.281 164.398 113.273 164.695 113.258C164.992 113.227 165.273 113.188 165.539 113.141V118.789C164.867 119.008 164.164 119.172 163.43 119.281C162.695 119.406 161.914 119.469 161.086 119.469C159.398 119.469 157.953 119.203 156.75 118.672C155.562 118.141 154.656 117.305 154.031 116.164C153.406 115.023 153.094 113.539 153.094 111.711V87.3359ZM181.477 112.625V102.172C181.477 101.453 181.375 100.836 181.172 100.32C180.969 99.8047 180.648 99.4062 180.211 99.125C179.773 98.8281 179.188 98.6797 178.453 98.6797C177.859 98.6797 177.352 98.7812 176.93 98.9844C176.508 99.1875 176.188 99.4922 175.969 99.8984C175.75 100.305 175.641 100.82 175.641 101.445H167.742C167.742 100.273 168 99.1875 168.516 98.1875C169.047 97.1719 169.797 96.2891 170.766 95.5391C171.75 94.7891 172.922 94.2109 174.281 93.8047C175.656 93.3828 177.188 93.1719 178.875 93.1719C180.891 93.1719 182.688 93.5078 184.266 94.1797C185.859 94.8516 187.117 95.8594 188.039 97.2031C188.961 98.5312 189.422 100.203 189.422 102.219V112.602C189.422 114.258 189.516 115.516 189.703 116.375C189.891 117.219 190.156 117.961 190.5 118.602V119H182.578C182.203 118.219 181.922 117.266 181.734 116.141C181.562 115 181.477 113.828 181.477 112.625ZM182.438 103.508L182.484 107.727H178.992C178.258 107.727 177.633 107.828 177.117 108.031C176.617 108.234 176.211 108.516 175.898 108.875C175.602 109.219 175.383 109.609 175.242 110.047C175.117 110.484 175.055 110.945 175.055 111.43C175.055 111.898 175.164 112.32 175.383 112.695C175.617 113.055 175.93 113.336 176.32 113.539C176.711 113.742 177.148 113.844 177.633 113.844C178.508 113.844 179.25 113.68 179.859 113.352C180.484 113.008 180.961 112.594 181.289 112.109C181.617 111.625 181.781 111.172 181.781 110.75L183.516 113.984C183.203 114.609 182.844 115.242 182.438 115.883C182.047 116.523 181.555 117.117 180.961 117.664C180.383 118.195 179.672 118.633 178.828 118.977C177.984 119.305 176.961 119.469 175.758 119.469C174.195 119.469 172.758 119.148 171.445 118.508C170.148 117.867 169.109 116.977 168.328 115.836C167.547 114.68 167.156 113.352 167.156 111.852C167.156 110.539 167.391 109.367 167.859 108.336C168.344 107.305 169.07 106.43 170.039 105.711C171.008 104.992 172.242 104.445 173.742 104.07C175.242 103.695 177.008 103.508 179.039 103.508H182.438ZM193.875 83H201.773V112.766L200.953 119H193.875V83ZM217.336 106.039V106.531C217.336 108.453 217.141 110.203 216.75 111.781C216.359 113.359 215.758 114.727 214.945 115.883C214.133 117.023 213.109 117.906 211.875 118.531C210.641 119.156 209.18 119.469 207.492 119.469C205.961 119.469 204.648 119.141 203.555 118.484C202.461 117.812 201.547 116.891 200.812 115.719C200.078 114.531 199.484 113.164 199.031 111.617C198.578 110.055 198.219 108.383 197.953 106.602V106.016C198.219 104.25 198.578 102.594 199.031 101.047C199.484 99.4844 200.078 98.1172 200.812 96.9453C201.547 95.7578 202.453 94.8359 203.531 94.1797C204.625 93.5078 205.93 93.1719 207.445 93.1719C209.148 93.1719 210.617 93.4922 211.852 94.1328C213.102 94.7734 214.133 95.6719 214.945 96.8281C215.758 97.9844 216.359 99.3438 216.75 100.906C217.141 102.469 217.336 104.18 217.336 106.039ZM209.438 106.531V106.039C209.438 105.117 209.383 104.25 209.273 103.438C209.164 102.625 208.969 101.906 208.688 101.281C208.406 100.656 208.008 100.164 207.492 99.8047C206.977 99.4453 206.305 99.2656 205.477 99.2656C204.633 99.2656 203.922 99.4062 203.344 99.6875C202.781 99.9688 202.328 100.375 201.984 100.906C201.656 101.422 201.422 102.062 201.281 102.828C201.141 103.578 201.078 104.43 201.094 105.383V107.234C201.062 108.531 201.18 109.641 201.445 110.562C201.711 111.484 202.172 112.188 202.828 112.672C203.484 113.156 204.383 113.398 205.523 113.398C206.367 113.398 207.047 113.234 207.562 112.906C208.094 112.578 208.492 112.109 208.758 111.5C209.023 110.891 209.203 110.164 209.297 109.32C209.391 108.477 209.438 107.547 209.438 106.531ZM234.023 112.625V102.172C234.023 101.453 233.922 100.836 233.719 100.32C233.516 99.8047 233.195 99.4062 232.758 99.125C232.32 98.8281 231.734 98.6797 231 98.6797C230.406 98.6797 229.898 98.7812 229.477 98.9844C229.055 99.1875 228.734 99.4922 228.516 99.8984C228.297 100.305 228.188 100.82 228.188 101.445H220.289C220.289 100.273 220.547 99.1875 221.062 98.1875C221.594 97.1719 222.344 96.2891 223.312 95.5391C224.297 94.7891 225.469 94.2109 226.828 93.8047C228.203 93.3828 229.734 93.1719 231.422 93.1719C233.438 93.1719 235.234 93.5078 236.812 94.1797C238.406 94.8516 239.664 95.8594 240.586 97.2031C241.508 98.5312 241.969 100.203 241.969 102.219V112.602C241.969 114.258 242.062 115.516 242.25 116.375C242.438 117.219 242.703 117.961 243.047 118.602V119H235.125C234.75 118.219 234.469 117.266 234.281 116.141C234.109 115 234.023 113.828 234.023 112.625ZM234.984 103.508L235.031 107.727H231.539C230.805 107.727 230.18 107.828 229.664 108.031C229.164 108.234 228.758 108.516 228.445 108.875C228.148 109.219 227.93 109.609 227.789 110.047C227.664 110.484 227.602 110.945 227.602 111.43C227.602 111.898 227.711 112.32 227.93 112.695C228.164 113.055 228.477 113.336 228.867 113.539C229.258 113.742 229.695 113.844 230.18 113.844C231.055 113.844 231.797 113.68 232.406 113.352C233.031 113.008 233.508 112.594 233.836 112.109C234.164 111.625 234.328 111.172 234.328 110.75L236.062 113.984C235.75 114.609 235.391 115.242 234.984 115.883C234.594 116.523 234.102 117.117 233.508 117.664C232.93 118.195 232.219 118.633 231.375 118.977C230.531 119.305 229.508 119.469 228.305 119.469C226.742 119.469 225.305 119.148 223.992 118.508C222.695 117.867 221.656 116.977 220.875 115.836C220.094 114.68 219.703 113.352 219.703 111.852C219.703 110.539 219.938 109.367 220.406 108.336C220.891 107.305 221.617 106.43 222.586 105.711C223.555 104.992 224.789 104.445 226.289 104.07C227.789 103.695 229.555 103.508 231.586 103.508H234.984ZM259.641 111.875C259.641 111.438 259.492 111.062 259.195 110.75C258.914 110.422 258.414 110.125 257.695 109.859C256.977 109.578 255.969 109.297 254.672 109.016C253.438 108.75 252.273 108.398 251.18 107.961C250.102 107.523 249.156 106.992 248.344 106.367C247.531 105.742 246.891 105 246.422 104.141C245.969 103.281 245.742 102.297 245.742 101.188C245.742 100.109 245.969 99.0938 246.422 98.1406C246.891 97.1719 247.57 96.3203 248.461 95.5859C249.367 94.8359 250.469 94.25 251.766 93.8281C253.062 93.3906 254.539 93.1719 256.195 93.1719C258.477 93.1719 260.445 93.5234 262.102 94.2266C263.758 94.9141 265.031 95.8828 265.922 97.1328C266.828 98.3672 267.281 99.7969 267.281 101.422H259.383C259.383 100.781 259.273 100.234 259.055 99.7812C258.852 99.3281 258.516 98.9844 258.047 98.75C257.578 98.5 256.953 98.375 256.172 98.375C255.625 98.375 255.125 98.4766 254.672 98.6797C254.234 98.8828 253.883 99.1641 253.617 99.5234C253.352 99.8828 253.219 100.305 253.219 100.789C253.219 101.133 253.297 101.445 253.453 101.727C253.625 101.992 253.883 102.242 254.227 102.477C254.57 102.695 255.008 102.898 255.539 103.086C256.07 103.258 256.711 103.414 257.461 103.555C259.164 103.867 260.758 104.312 262.242 104.891C263.727 105.469 264.93 106.289 265.852 107.352C266.789 108.414 267.258 109.844 267.258 111.641C267.258 112.766 267 113.805 266.484 114.758C265.969 115.695 265.227 116.523 264.258 117.242C263.289 117.945 262.125 118.492 260.766 118.883C259.406 119.273 257.875 119.469 256.172 119.469C253.75 119.469 251.703 119.039 250.031 118.18C248.359 117.305 247.094 116.211 246.234 114.898C245.391 113.57 244.969 112.227 244.969 110.867H252.328C252.359 111.648 252.547 112.289 252.891 112.789C253.25 113.289 253.727 113.656 254.32 113.891C254.914 114.125 255.602 114.242 256.383 114.242C257.102 114.242 257.695 114.141 258.164 113.938C258.648 113.734 259.016 113.461 259.266 113.117C259.516 112.758 259.641 112.344 259.641 111.875ZM283.242 119.469C281.18 119.469 279.336 119.148 277.711 118.508C276.086 117.852 274.711 116.953 273.586 115.812C272.477 114.672 271.625 113.359 271.031 111.875C270.453 110.391 270.164 108.82 270.164 107.164V106.273C270.164 104.414 270.422 102.695 270.938 101.117C271.453 99.5234 272.219 98.1328 273.234 96.9453C274.25 95.7578 275.523 94.8359 277.055 94.1797C278.586 93.5078 280.367 93.1719 282.398 93.1719C284.195 93.1719 285.805 93.4609 287.227 94.0391C288.648 94.6172 289.852 95.4453 290.836 96.5234C291.836 97.6016 292.594 98.9062 293.109 100.438C293.641 101.969 293.906 103.688 293.906 105.594V108.805H273.188V103.859H286.195V103.25C286.211 102.406 286.062 101.688 285.75 101.094C285.453 100.5 285.016 100.047 284.438 99.7344C283.859 99.4219 283.156 99.2656 282.328 99.2656C281.469 99.2656 280.758 99.4531 280.195 99.8281C279.648 100.203 279.219 100.719 278.906 101.375C278.609 102.016 278.398 102.758 278.273 103.602C278.148 104.445 278.086 105.336 278.086 106.273V107.164C278.086 108.102 278.211 108.953 278.461 109.719C278.727 110.484 279.102 111.141 279.586 111.688C280.086 112.219 280.68 112.633 281.367 112.93C282.07 113.227 282.867 113.375 283.758 113.375C284.836 113.375 285.898 113.172 286.945 112.766C287.992 112.359 288.891 111.688 289.641 110.75L293.227 115.016C292.711 115.75 291.977 116.461 291.023 117.148C290.086 117.836 288.961 118.398 287.648 118.836C286.336 119.258 284.867 119.469 283.242 119.469ZM320.531 119H312.961L313.008 112.672H320.531C322.094 112.672 323.414 112.297 324.492 111.547C325.586 110.797 326.414 109.68 326.977 108.195C327.555 106.695 327.844 104.852 327.844 102.664V101.188C327.844 99.5469 327.68 98.1094 327.352 96.875C327.039 95.625 326.57 94.5859 325.945 93.7578C325.32 92.9141 324.539 92.2812 323.602 91.8594C322.68 91.4375 321.617 91.2266 320.414 91.2266H312.82V84.875H320.414C322.727 84.875 324.844 85.2734 326.766 86.0703C328.703 86.8516 330.375 87.9766 331.781 89.4453C333.203 90.8984 334.297 92.625 335.062 94.625C335.844 96.6094 336.234 98.8125 336.234 101.234V102.664C336.234 105.07 335.844 107.273 335.062 109.273C334.297 111.273 333.211 113 331.805 114.453C330.398 115.906 328.734 117.031 326.812 117.828C324.906 118.609 322.812 119 320.531 119ZM317.672 84.875V119H309.445V84.875H317.672ZM352.43 119.469C350.367 119.469 348.523 119.148 346.898 118.508C345.273 117.852 343.898 116.953 342.773 115.812C341.664 114.672 340.812 113.359 340.219 111.875C339.641 110.391 339.352 108.82 339.352 107.164V106.273C339.352 104.414 339.609 102.695 340.125 101.117C340.641 99.5234 341.406 98.1328 342.422 96.9453C343.438 95.7578 344.711 94.8359 346.242 94.1797C347.773 93.5078 349.555 93.1719 351.586 93.1719C353.383 93.1719 354.992 93.4609 356.414 94.0391C357.836 94.6172 359.039 95.4453 360.023 96.5234C361.023 97.6016 361.781 98.9062 362.297 100.438C362.828 101.969 363.094 103.688 363.094 105.594V108.805H342.375V103.859H355.383V103.25C355.398 102.406 355.25 101.688 354.938 101.094C354.641 100.5 354.203 100.047 353.625 99.7344C353.047 99.4219 352.344 99.2656 351.516 99.2656C350.656 99.2656 349.945 99.4531 349.383 99.8281C348.836 100.203 348.406 100.719 348.094 101.375C347.797 102.016 347.586 102.758 347.461 103.602C347.336 104.445 347.273 105.336 347.273 106.273V107.164C347.273 108.102 347.398 108.953 347.648 109.719C347.914 110.484 348.289 111.141 348.773 111.688C349.273 112.219 349.867 112.633 350.555 112.93C351.258 113.227 352.055 113.375 352.945 113.375C354.023 113.375 355.086 113.172 356.133 112.766C357.18 112.359 358.078 111.688 358.828 110.75L362.414 115.016C361.898 115.75 361.164 116.461 360.211 117.148C359.273 117.836 358.148 118.398 356.836 118.836C355.523 119.258 354.055 119.469 352.43 119.469ZM379.594 111.875C379.594 111.438 379.445 111.062 379.148 110.75C378.867 110.422 378.367 110.125 377.648 109.859C376.93 109.578 375.922 109.297 374.625 109.016C373.391 108.75 372.227 108.398 371.133 107.961C370.055 107.523 369.109 106.992 368.297 106.367C367.484 105.742 366.844 105 366.375 104.141C365.922 103.281 365.695 102.297 365.695 101.188C365.695 100.109 365.922 99.0938 366.375 98.1406C366.844 97.1719 367.523 96.3203 368.414 95.5859C369.32 94.8359 370.422 94.25 371.719 93.8281C373.016 93.3906 374.492 93.1719 376.148 93.1719C378.43 93.1719 380.398 93.5234 382.055 94.2266C383.711 94.9141 384.984 95.8828 385.875 97.1328C386.781 98.3672 387.234 99.7969 387.234 101.422H379.336C379.336 100.781 379.227 100.234 379.008 99.7812C378.805 99.3281 378.469 98.9844 378 98.75C377.531 98.5 376.906 98.375 376.125 98.375C375.578 98.375 375.078 98.4766 374.625 98.6797C374.188 98.8828 373.836 99.1641 373.57 99.5234C373.305 99.8828 373.172 100.305 373.172 100.789C373.172 101.133 373.25 101.445 373.406 101.727C373.578 101.992 373.836 102.242 374.18 102.477C374.523 102.695 374.961 102.898 375.492 103.086C376.023 103.258 376.664 103.414 377.414 103.555C379.117 103.867 380.711 104.312 382.195 104.891C383.68 105.469 384.883 106.289 385.805 107.352C386.742 108.414 387.211 109.844 387.211 111.641C387.211 112.766 386.953 113.805 386.438 114.758C385.922 115.695 385.18 116.523 384.211 117.242C383.242 117.945 382.078 118.492 380.719 118.883C379.359 119.273 377.828 119.469 376.125 119.469C373.703 119.469 371.656 119.039 369.984 118.18C368.312 117.305 367.047 116.211 366.188 114.898C365.344 113.57 364.922 112.227 364.922 110.867H372.281C372.312 111.648 372.5 112.289 372.844 112.789C373.203 113.289 373.68 113.656 374.273 113.891C374.867 114.125 375.555 114.242 376.336 114.242C377.055 114.242 377.648 114.141 378.117 113.938C378.602 113.734 378.969 113.461 379.219 113.117C379.469 112.758 379.594 112.344 379.594 111.875ZM399.258 93.6406V119H391.336V93.6406H399.258ZM390.867 87.1016C390.867 85.9766 391.273 85.0547 392.086 84.3359C392.898 83.6172 393.953 83.2578 395.25 83.2578C396.547 83.2578 397.602 83.6172 398.414 84.3359C399.227 85.0547 399.633 85.9766 399.633 87.1016C399.633 88.2266 399.227 89.1484 398.414 89.8672C397.602 90.5859 396.547 90.9453 395.25 90.9453C393.953 90.9453 392.898 90.5859 392.086 89.8672C391.273 89.1484 390.867 88.2266 390.867 87.1016ZM420.07 93.6406H427.242V118.016C427.242 120.359 426.703 122.344 425.625 123.969C424.547 125.609 423.039 126.852 421.102 127.695C419.18 128.555 416.93 128.984 414.352 128.984C413.211 128.984 412.047 128.836 410.859 128.539C409.672 128.258 408.562 127.836 407.531 127.273C406.5 126.711 405.633 126.016 404.93 125.188L408.234 120.547C408.875 121.266 409.68 121.875 410.648 122.375C411.617 122.891 412.758 123.148 414.07 123.148C415.211 123.148 416.164 122.945 416.93 122.539C417.711 122.133 418.305 121.539 418.711 120.758C419.117 119.992 419.32 119.062 419.32 117.969V99.6406L420.07 93.6406ZM403.219 106.625V106.133C403.219 104.211 403.453 102.461 403.922 100.883C404.406 99.2891 405.094 97.9219 405.984 96.7812C406.891 95.625 407.984 94.7344 409.266 94.1094C410.547 93.4844 411.992 93.1719 413.602 93.1719C415.336 93.1719 416.758 93.5078 417.867 94.1797C418.992 94.8359 419.891 95.7578 420.562 96.9453C421.25 98.1328 421.781 99.5234 422.156 101.117C422.547 102.695 422.875 104.398 423.141 106.227V106.812C422.875 108.531 422.508 110.156 422.039 111.688C421.586 113.203 420.992 114.547 420.258 115.719C419.523 116.891 418.602 117.812 417.492 118.484C416.398 119.141 415.086 119.469 413.555 119.469C411.961 119.469 410.523 119.148 409.242 118.508C407.977 117.867 406.891 116.969 405.984 115.812C405.094 114.656 404.406 113.297 403.922 111.734C403.453 110.172 403.219 108.469 403.219 106.625ZM411.117 106.133V106.625C411.117 107.578 411.203 108.461 411.375 109.273C411.562 110.086 411.844 110.805 412.219 111.43C412.594 112.039 413.055 112.516 413.602 112.859C414.164 113.203 414.82 113.375 415.57 113.375C416.711 113.375 417.633 113.133 418.336 112.648C419.039 112.164 419.547 111.477 419.859 110.586C420.172 109.695 420.305 108.648 420.258 107.445V105.594C420.289 104.562 420.219 103.656 420.047 102.875C419.875 102.078 419.602 101.414 419.227 100.883C418.867 100.352 418.383 99.9531 417.773 99.6875C417.18 99.4062 416.461 99.2656 415.617 99.2656C414.883 99.2656 414.234 99.4375 413.672 99.7812C413.109 100.125 412.641 100.609 412.266 101.234C411.891 101.844 411.602 102.57 411.398 103.414C411.211 104.242 411.117 105.148 411.117 106.133ZM439.547 99.0547V119H431.648V93.6406H439.055L439.547 99.0547ZM438.609 105.453L436.758 105.5C436.758 103.562 436.992 101.836 437.461 100.32C437.93 98.7891 438.594 97.4922 439.453 96.4297C440.312 95.3672 441.336 94.5625 442.523 94.0156C443.727 93.4531 445.062 93.1719 446.531 93.1719C447.703 93.1719 448.773 93.3438 449.742 93.6875C450.727 94.0312 451.57 94.5859 452.273 95.3516C452.992 96.1172 453.539 97.1328 453.914 98.3984C454.305 99.6484 454.5 101.195 454.5 103.039V119H446.555V103.016C446.555 102 446.414 101.227 446.133 100.695C445.852 100.148 445.445 99.7734 444.914 99.5703C444.383 99.3672 443.734 99.2656 442.969 99.2656C442.156 99.2656 441.469 99.4219 440.906 99.7344C440.344 100.047 439.891 100.484 439.547 101.047C439.219 101.594 438.977 102.242 438.82 102.992C438.68 103.742 438.609 104.562 438.609 105.453Z" fill="black"/>
<path d="M1134 0H1348C1356.28 0 1363 6.71573 1363 15V148C1363 156.284 1356.28 163 1348 163H1134V0Z" fill="#CFAD5C"/>
<path d="M1217.58 64.1667C1217.58 66.0281 1218.51 67.7419 1220.09 69.2434C1221.67 70.7429 1223.94 72.0619 1226.71 73.1553C1232.26 75.343 1239.93 76.6667 1248.5 76.6667C1257.07 76.6667 1264.74 75.343 1270.29 73.1553C1273.06 72.0619 1275.33 70.7429 1276.91 69.2434C1278.49 67.7419 1279.42 66.0281 1279.42 64.1667C1279.42 62.3052 1278.49 60.5914 1276.91 59.0899C1275.33 57.5904 1273.06 56.2714 1270.29 55.178C1264.74 52.9903 1257.07 51.6667 1248.5 51.6667C1239.93 51.6667 1232.26 52.9903 1226.71 55.178C1223.94 56.2714 1221.67 57.5904 1220.09 59.0899C1218.51 60.5914 1217.58 62.3052 1217.58 64.1667ZM1221.62 64.1667C1221.62 63.0283 1222.37 61.8878 1223.88 60.7921C1225.37 59.7041 1227.52 58.7293 1230.11 57.9144C1235.28 56.2864 1242.07 55.3333 1248.5 55.3333C1254.93 55.3333 1261.72 56.2864 1266.89 57.9144C1269.48 58.7293 1271.63 59.7041 1273.12 60.7921C1274.63 61.8878 1275.37 63.0283 1275.37 64.1667C1275.37 65.305 1274.63 66.4455 1273.12 67.5412C1271.63 68.6292 1269.48 69.604 1266.89 70.4189C1261.72 72.0469 1254.93 73 1248.5 73C1242.07 73 1235.28 72.0469 1230.11 70.4189C1227.52 69.604 1225.37 68.6292 1223.88 67.5412C1222.37 66.4455 1221.62 65.305 1221.62 64.1667Z" fill="white" stroke="white"/>
<path d="M1217.58 74.8333C1217.58 76.6948 1218.51 78.4086 1220.09 79.9101C1221.67 81.4096 1223.94 82.7286 1226.71 83.822C1232.26 86.0097 1239.93 87.3333 1248.5 87.3333C1257.07 87.3333 1264.74 86.0097 1270.29 83.822C1273.06 82.7286 1275.33 81.4096 1276.91 79.9101C1278.49 78.4086 1279.42 76.6948 1279.42 74.8333V64.1667C1279.42 63.6576 1279.19 63.1851 1278.8 62.8479C1278.42 62.5126 1277.91 62.3333 1277.4 62.3333C1276.88 62.3333 1276.37 62.5126 1275.99 62.8479C1275.61 63.1851 1275.37 63.6576 1275.37 64.1667V74.8333C1275.37 75.9717 1274.63 77.1122 1273.12 78.2079C1271.63 79.2959 1269.48 80.2707 1266.89 81.0856C1261.72 82.7136 1254.93 83.6667 1248.5 83.6667C1242.07 83.6667 1235.28 82.7136 1230.11 81.0856C1227.52 80.2707 1225.37 79.2959 1223.88 78.2079C1222.37 77.1122 1221.62 75.9717 1221.62 74.8333V64.1667C1221.62 63.6576 1221.39 63.1851 1221.01 62.8479C1220.63 62.5126 1220.12 62.3333 1219.6 62.3333C1219.09 62.3333 1218.58 62.5126 1218.2 62.8479C1217.81 63.1851 1217.58 63.6576 1217.58 64.1667V74.8333Z" fill="white" stroke="white"/>
<path d="M1217.58 86.8333C1217.58 88.6948 1218.51 90.4086 1220.09 91.9101C1221.67 93.4095 1223.94 94.7286 1226.71 95.8219C1232.26 98.0097 1239.93 99.3333 1248.5 99.3333C1257.07 99.3333 1264.74 98.0097 1270.29 95.8219C1273.06 94.7286 1275.33 93.4095 1276.91 91.9101C1278.49 90.4086 1279.42 88.6948 1279.42 86.8333V74.8333C1279.42 74.3243 1279.19 73.8517 1278.8 73.5146C1278.42 73.1792 1277.91 73 1277.4 73C1276.88 73 1276.37 73.1792 1275.99 73.5146C1275.61 73.8517 1275.37 74.3243 1275.37 74.8333V86.8333C1275.37 87.9717 1274.63 89.1122 1273.12 90.2079C1271.63 91.2958 1269.48 92.2707 1266.89 93.0856C1261.72 94.7136 1254.93 95.6667 1248.5 95.6667C1242.07 95.6667 1235.28 94.7136 1230.11 93.0856C1227.52 92.2707 1225.37 91.2958 1223.88 90.2079C1222.37 89.1122 1221.62 87.9717 1221.62 86.8333V74.8333C1221.62 74.3243 1221.39 73.8517 1221.01 73.5146C1220.63 73.1792 1220.12 73 1219.6 73C1219.09 73 1218.58 73.1792 1218.2 73.5146C1217.81 73.8517 1217.58 74.3243 1217.58 74.8333V86.8333Z" fill="white" stroke="white"/>
<path d="M1217.58 98.8333C1217.58 100.695 1218.51 102.409 1220.09 103.91C1221.67 105.41 1223.94 106.729 1226.71 107.822C1232.26 110.01 1239.93 111.333 1248.5 111.333C1257.07 111.333 1264.74 110.01 1270.29 107.822C1273.06 106.729 1275.33 105.41 1276.91 103.91C1278.49 102.409 1279.42 100.695 1279.42 98.8333V86.8333C1279.42 86.3243 1279.19 85.8517 1278.8 85.5146C1278.42 85.1792 1277.91 85 1277.4 85C1276.88 85 1276.37 85.1792 1275.99 85.5146C1275.61 85.8517 1275.37 86.3243 1275.37 86.8333V98.8333C1275.37 99.9717 1274.63 101.112 1273.12 102.208C1271.63 103.296 1269.48 104.271 1266.89 105.086C1261.72 106.714 1254.93 107.667 1248.5 107.667C1242.07 107.667 1235.28 106.714 1230.11 105.086C1227.52 104.271 1225.37 103.296 1223.88 102.208C1222.37 101.112 1221.62 99.9717 1221.62 98.8333V86.8333C1221.62 86.3243 1221.39 85.8517 1221.01 85.5146C1220.63 85.1792 1220.12 85 1219.6 85C1219.09 85 1218.58 85.1792 1218.2 85.5146C1217.81 85.8517 1217.58 86.3243 1217.58 86.8333V98.8333Z" fill="white" stroke="white"/>
</svg>
