<svg width="1363" height="163" viewBox="0 0 1363 163" fill="none" xmlns="http://www.w3.org/2000/svg">
<path d="M0 15C0 6.71573 6.71573 0 15 0H37V163H15C6.71573 163 0 156.284 0 148V15Z" fill="#424242"/>
<rect width="1097" height="163" transform="translate(37)" fill="#F0F0F0"/>
<path d="M105.973 58.2578V61H96.8906V58.2578H105.973ZM98.0391 43.9375V61H94.5234V43.9375H98.0391ZM104.789 50.8867V53.5586H96.8906V50.8867H104.789ZM105.961 43.9375V46.6914H96.8906V43.9375H105.961ZM111.82 58.5391L114.633 48.3203H118.16L113.883 61H111.75L111.82 58.5391ZM109.887 48.3203L112.711 58.5508L112.77 61H110.625L106.348 48.3203H109.887ZM125.344 61.2344C124.359 61.2344 123.477 61.0781 122.695 60.7656C121.914 60.4453 121.25 60.0039 120.703 59.4414C120.164 58.8789 119.75 58.2266 119.461 57.4844C119.172 56.7344 119.027 55.9375 119.027 55.0938V54.625C119.027 53.6641 119.164 52.7852 119.438 51.9883C119.711 51.1914 120.102 50.5 120.609 49.9141C121.125 49.3281 121.75 48.8789 122.484 48.5664C123.219 48.2461 124.047 48.0859 124.969 48.0859C125.867 48.0859 126.664 48.2344 127.359 48.5312C128.055 48.8281 128.637 49.25 129.105 49.7969C129.582 50.3438 129.941 51 130.184 51.7656C130.426 52.5234 130.547 53.3672 130.547 54.2969V55.7031H120.469V53.4531H127.23V53.1953C127.23 52.7266 127.145 52.3086 126.973 51.9414C126.809 51.5664 126.559 51.2695 126.223 51.0508C125.887 50.832 125.457 50.7227 124.934 50.7227C124.488 50.7227 124.105 50.8203 123.785 51.0156C123.465 51.2109 123.203 51.4844 123 51.8359C122.805 52.1875 122.656 52.6016 122.555 53.0781C122.461 53.5469 122.414 54.0625 122.414 54.625V55.0938C122.414 55.6016 122.484 56.0703 122.625 56.5C122.773 56.9297 122.98 57.3008 123.246 57.6133C123.52 57.9258 123.848 58.168 124.23 58.3398C124.621 58.5117 125.062 58.5977 125.555 58.5977C126.164 58.5977 126.73 58.4805 127.254 58.2461C127.785 58.0039 128.242 57.6406 128.625 57.1562L130.266 58.9375C130 59.3203 129.637 59.6875 129.176 60.0391C128.723 60.3906 128.176 60.6797 127.535 60.9062C126.895 61.125 126.164 61.2344 125.344 61.2344ZM135.844 51.0859V61H132.469V48.3203H135.645L135.844 51.0859ZM139.664 48.2383L139.605 51.3672C139.441 51.3438 139.242 51.3242 139.008 51.3086C138.781 51.2852 138.574 51.2734 138.387 51.2734C137.91 51.2734 137.496 51.3359 137.145 51.4609C136.801 51.5781 136.512 51.7539 136.277 51.9883C136.051 52.2227 135.879 52.5078 135.762 52.8438C135.652 53.1797 135.59 53.5625 135.574 53.9922L134.895 53.7812C134.895 52.9609 134.977 52.207 135.141 51.5195C135.305 50.8242 135.543 50.2188 135.855 49.7031C136.176 49.1875 136.566 48.7891 137.027 48.5078C137.488 48.2266 138.016 48.0859 138.609 48.0859C138.797 48.0859 138.988 48.1016 139.184 48.1328C139.379 48.1562 139.539 48.1914 139.664 48.2383ZM154.383 46.8555L149.742 61H146.004L152.344 43.9375H154.723L154.383 46.8555ZM158.238 61L153.586 46.8555L153.211 43.9375H155.613L161.988 61H158.238ZM158.027 54.6484V57.4023H149.016V54.6484H158.027ZM167.66 61H164.262V47.1953C164.262 46.2344 164.449 45.4258 164.824 44.7695C165.207 44.1055 165.742 43.6055 166.43 43.2695C167.125 42.9258 167.949 42.7539 168.902 42.7539C169.215 42.7539 169.516 42.7773 169.805 42.8242C170.094 42.8633 170.375 42.9141 170.648 42.9766L170.613 45.5195C170.465 45.4805 170.309 45.4531 170.145 45.4375C169.98 45.4219 169.789 45.4141 169.57 45.4141C169.164 45.4141 168.816 45.4844 168.527 45.625C168.246 45.7578 168.031 45.957 167.883 46.2227C167.734 46.4883 167.66 46.8125 167.66 47.1953V61ZM170.191 48.3203V50.7109H162.375V48.3203H170.191ZM178.172 48.3203V50.7109H170.789V48.3203H178.172ZM172.617 45.1914H175.992V57.1797C175.992 57.5469 176.039 57.8281 176.133 58.0234C176.234 58.2188 176.383 58.3555 176.578 58.4336C176.773 58.5039 177.02 58.5391 177.316 58.5391C177.527 58.5391 177.715 58.5312 177.879 58.5156C178.051 58.4922 178.195 58.4688 178.312 58.4453L178.324 60.9297C178.035 61.0234 177.723 61.0977 177.387 61.1523C177.051 61.207 176.68 61.2344 176.273 61.2344C175.531 61.2344 174.883 61.1133 174.328 60.8711C173.781 60.6211 173.359 60.2227 173.062 59.6758C172.766 59.1289 172.617 58.4102 172.617 57.5195V45.1914ZM185.93 61.2344C184.945 61.2344 184.062 61.0781 183.281 60.7656C182.5 60.4453 181.836 60.0039 181.289 59.4414C180.75 58.8789 180.336 58.2266 180.047 57.4844C179.758 56.7344 179.613 55.9375 179.613 55.0938V54.625C179.613 53.6641 179.75 52.7852 180.023 51.9883C180.297 51.1914 180.688 50.5 181.195 49.9141C181.711 49.3281 182.336 48.8789 183.07 48.5664C183.805 48.2461 184.633 48.0859 185.555 48.0859C186.453 48.0859 187.25 48.2344 187.945 48.5312C188.641 48.8281 189.223 49.25 189.691 49.7969C190.168 50.3438 190.527 51 190.77 51.7656C191.012 52.5234 191.133 53.3672 191.133 54.2969V55.7031H181.055V53.4531H187.816V53.1953C187.816 52.7266 187.73 52.3086 187.559 51.9414C187.395 51.5664 187.145 51.2695 186.809 51.0508C186.473 50.832 186.043 50.7227 185.52 50.7227C185.074 50.7227 184.691 50.8203 184.371 51.0156C184.051 51.2109 183.789 51.4844 183.586 51.8359C183.391 52.1875 183.242 52.6016 183.141 53.0781C183.047 53.5469 183 54.0625 183 54.625V55.0938C183 55.6016 183.07 56.0703 183.211 56.5C183.359 56.9297 183.566 57.3008 183.832 57.6133C184.105 57.9258 184.434 58.168 184.816 58.3398C185.207 58.5117 185.648 58.5977 186.141 58.5977C186.75 58.5977 187.316 58.4805 187.84 58.2461C188.371 58.0039 188.828 57.6406 189.211 57.1562L190.852 58.9375C190.586 59.3203 190.223 59.6875 189.762 60.0391C189.309 60.3906 188.762 60.6797 188.121 60.9062C187.48 61.125 186.75 61.2344 185.93 61.2344ZM196.43 51.0859V61H193.055V48.3203H196.23L196.43 51.0859ZM200.25 48.2383L200.191 51.3672C200.027 51.3438 199.828 51.3242 199.594 51.3086C199.367 51.2852 199.16 51.2734 198.973 51.2734C198.496 51.2734 198.082 51.3359 197.73 51.4609C197.387 51.5781 197.098 51.7539 196.863 51.9883C196.637 52.2227 196.465 52.5078 196.348 52.8438C196.238 53.1797 196.176 53.5625 196.16 53.9922L195.48 53.7812C195.48 52.9609 195.562 52.207 195.727 51.5195C195.891 50.8242 196.129 50.2188 196.441 49.7031C196.762 49.1875 197.152 48.7891 197.613 48.5078C198.074 48.2266 198.602 48.0859 199.195 48.0859C199.383 48.0859 199.574 48.1016 199.77 48.1328C199.965 48.1562 200.125 48.1914 200.25 48.2383ZM219.48 58.2578V61H210.398V58.2578H219.48ZM211.547 43.9375V61H208.031V43.9375H211.547ZM218.297 50.8867V53.5586H210.398V50.8867H218.297ZM219.469 43.9375V46.6914H210.398V43.9375H219.469ZM224.883 43V61H221.496V43H224.883ZM233.508 61.2344C232.523 61.2344 231.641 61.0781 230.859 60.7656C230.078 60.4453 229.414 60.0039 228.867 59.4414C228.328 58.8789 227.914 58.2266 227.625 57.4844C227.336 56.7344 227.191 55.9375 227.191 55.0938V54.625C227.191 53.6641 227.328 52.7852 227.602 51.9883C227.875 51.1914 228.266 50.5 228.773 49.9141C229.289 49.3281 229.914 48.8789 230.648 48.5664C231.383 48.2461 232.211 48.0859 233.133 48.0859C234.031 48.0859 234.828 48.2344 235.523 48.5312C236.219 48.8281 236.801 49.25 237.27 49.7969C237.746 50.3438 238.105 51 238.348 51.7656C238.59 52.5234 238.711 53.3672 238.711 54.2969V55.7031H228.633V53.4531H235.395V53.1953C235.395 52.7266 235.309 52.3086 235.137 51.9414C234.973 51.5664 234.723 51.2695 234.387 51.0508C234.051 50.832 233.621 50.7227 233.098 50.7227C232.652 50.7227 232.27 50.8203 231.949 51.0156C231.629 51.2109 231.367 51.4844 231.164 51.8359C230.969 52.1875 230.82 52.6016 230.719 53.0781C230.625 53.5469 230.578 54.0625 230.578 54.625V55.0938C230.578 55.6016 230.648 56.0703 230.789 56.5C230.938 56.9297 231.145 57.3008 231.41 57.6133C231.684 57.9258 232.012 58.168 232.395 58.3398C232.785 58.5117 233.227 58.5977 233.719 58.5977C234.328 58.5977 234.895 58.4805 235.418 58.2461C235.949 58.0039 236.406 57.6406 236.789 57.1562L238.43 58.9375C238.164 59.3203 237.801 59.6875 237.34 60.0391C236.887 60.3906 236.34 60.6797 235.699 60.9062C235.059 61.125 234.328 61.2344 233.508 61.2344ZM248.66 48.3203H251.719V60.5781C251.719 61.7344 251.461 62.7148 250.945 63.5195C250.438 64.332 249.727 64.9453 248.812 65.3594C247.898 65.7812 246.836 65.9922 245.625 65.9922C245.094 65.9922 244.531 65.9219 243.938 65.7812C243.352 65.6406 242.789 65.4219 242.25 65.125C241.719 64.8281 241.273 64.4531 240.914 64L242.402 62.0078C242.793 62.4609 243.246 62.8125 243.762 63.0625C244.277 63.3203 244.848 63.4492 245.473 63.4492C246.082 63.4492 246.598 63.3359 247.02 63.1094C247.441 62.8906 247.766 62.5664 247.992 62.1367C248.219 61.7148 248.332 61.2031 248.332 60.6016V51.25L248.66 48.3203ZM240.129 54.8125V54.5664C240.129 53.5977 240.246 52.7188 240.48 51.9297C240.723 51.1328 241.062 50.4492 241.5 49.8789C241.945 49.3086 242.484 48.8672 243.117 48.5547C243.75 48.2422 244.465 48.0859 245.262 48.0859C246.105 48.0859 246.812 48.2422 247.383 48.5547C247.953 48.8672 248.422 49.3125 248.789 49.8906C249.156 50.4609 249.441 51.1367 249.645 51.918C249.855 52.6914 250.02 53.5391 250.137 54.4609V55C250.02 55.8828 249.844 56.7031 249.609 57.4609C249.375 58.2188 249.066 58.8828 248.684 59.4531C248.301 60.0156 247.824 60.4531 247.254 60.7656C246.691 61.0781 246.02 61.2344 245.238 61.2344C244.457 61.2344 243.75 61.0742 243.117 60.7539C242.492 60.4336 241.957 59.9844 241.512 59.4062C241.066 58.8281 240.723 58.1484 240.48 57.3672C240.246 56.5859 240.129 55.7344 240.129 54.8125ZM243.504 54.5664V54.8125C243.504 55.3359 243.555 55.8242 243.656 56.2773C243.758 56.7305 243.914 57.1328 244.125 57.4844C244.344 57.8281 244.613 58.0977 244.934 58.293C245.262 58.4805 245.648 58.5742 246.094 58.5742C246.711 58.5742 247.215 58.4453 247.605 58.1875C247.996 57.9219 248.289 57.5586 248.484 57.0977C248.68 56.6367 248.793 56.1055 248.824 55.5039V53.9688C248.809 53.4766 248.742 53.0352 248.625 52.6445C248.508 52.2461 248.344 51.9062 248.133 51.625C247.922 51.3438 247.648 51.125 247.312 50.9688C246.977 50.8125 246.578 50.7344 246.117 50.7344C245.672 50.7344 245.285 50.8359 244.957 51.0391C244.637 51.2344 244.367 51.5039 244.148 51.8477C243.938 52.1914 243.777 52.5977 243.668 53.0664C243.559 53.5273 243.504 54.0273 243.504 54.5664ZM261.188 58.1406V52.4922C261.188 52.0859 261.121 51.7383 260.988 51.4492C260.855 51.1523 260.648 50.9219 260.367 50.7578C260.094 50.5938 259.738 50.5117 259.301 50.5117C258.926 50.5117 258.602 50.5781 258.328 50.7109C258.055 50.8359 257.844 51.0195 257.695 51.2617C257.547 51.4961 257.473 51.7734 257.473 52.0938H254.098C254.098 51.5547 254.223 51.043 254.473 50.5586C254.723 50.0742 255.086 49.6484 255.562 49.2812C256.039 48.9062 256.605 48.6133 257.262 48.4023C257.926 48.1914 258.668 48.0859 259.488 48.0859C260.473 48.0859 261.348 48.25 262.113 48.5781C262.879 48.9062 263.48 49.3984 263.918 50.0547C264.363 50.7109 264.586 51.5312 264.586 52.5156V57.9414C264.586 58.6367 264.629 59.207 264.715 59.6523C264.801 60.0898 264.926 60.4727 265.09 60.8008V61H261.68C261.516 60.6562 261.391 60.2266 261.305 59.7109C261.227 59.1875 261.188 58.6641 261.188 58.1406ZM261.633 53.2773L261.656 55.1875H259.77C259.324 55.1875 258.938 55.2383 258.609 55.3398C258.281 55.4414 258.012 55.5859 257.801 55.7734C257.59 55.9531 257.434 56.1641 257.332 56.4062C257.238 56.6484 257.191 56.9141 257.191 57.2031C257.191 57.4922 257.258 57.7539 257.391 57.9883C257.523 58.2148 257.715 58.3945 257.965 58.5273C258.215 58.6523 258.508 58.7148 258.844 58.7148C259.352 58.7148 259.793 58.6133 260.168 58.4102C260.543 58.207 260.832 57.957 261.035 57.6602C261.246 57.3633 261.355 57.082 261.363 56.8164L262.254 58.2461C262.129 58.5664 261.957 58.8984 261.738 59.2422C261.527 59.5859 261.258 59.9102 260.93 60.2148C260.602 60.5117 260.207 60.7578 259.746 60.9531C259.285 61.1406 258.738 61.2344 258.105 61.2344C257.301 61.2344 256.57 61.0742 255.914 60.7539C255.266 60.4258 254.75 59.9766 254.367 59.4062C253.992 58.8281 253.805 58.1719 253.805 57.4375C253.805 56.7734 253.93 56.1836 254.18 55.668C254.43 55.1523 254.797 54.7188 255.281 54.3672C255.773 54.0078 256.387 53.7383 257.121 53.5586C257.855 53.3711 258.707 53.2773 259.676 53.2773H261.633ZM270.492 51.0273V61H267.117V48.3203H270.281L270.492 51.0273ZM270 54.2148H269.086C269.086 53.2773 269.207 52.4336 269.449 51.6836C269.691 50.9258 270.031 50.2812 270.469 49.75C270.906 49.2109 271.426 48.8008 272.027 48.5195C272.637 48.2305 273.316 48.0859 274.066 48.0859C274.66 48.0859 275.203 48.1719 275.695 48.3438C276.188 48.5156 276.609 48.7891 276.961 49.1641C277.32 49.5391 277.594 50.0352 277.781 50.6523C277.977 51.2695 278.074 52.0234 278.074 52.9141V61H274.676V52.9023C274.676 52.3398 274.598 51.9023 274.441 51.5898C274.285 51.2773 274.055 51.0586 273.75 50.9336C273.453 50.8008 273.086 50.7344 272.648 50.7344C272.195 50.7344 271.801 50.8242 271.465 51.0039C271.137 51.1836 270.863 51.4336 270.645 51.7539C270.434 52.0664 270.273 52.4336 270.164 52.8555C270.055 53.2773 270 53.7305 270 54.2148ZM285.879 58.5977C286.293 58.5977 286.66 58.5195 286.98 58.3633C287.301 58.1992 287.551 57.9727 287.73 57.6836C287.918 57.3867 288.016 57.0391 288.023 56.6406H291.199C291.191 57.5312 290.953 58.3242 290.484 59.0195C290.016 59.707 289.387 60.25 288.598 60.6484C287.809 61.0391 286.926 61.2344 285.949 61.2344C284.965 61.2344 284.105 61.0703 283.371 60.7422C282.645 60.4141 282.039 59.9609 281.555 59.3828C281.07 58.7969 280.707 58.1172 280.465 57.3438C280.223 56.5625 280.102 55.7266 280.102 54.8359V54.4961C280.102 53.5977 280.223 52.7617 280.465 51.9883C280.707 51.207 281.07 50.5273 281.555 49.9492C282.039 49.3633 282.645 48.9062 283.371 48.5781C284.098 48.25 284.949 48.0859 285.926 48.0859C286.965 48.0859 287.875 48.2852 288.656 48.6836C289.445 49.082 290.062 49.6523 290.508 50.3945C290.961 51.1289 291.191 52 291.199 53.0078H288.023C288.016 52.5859 287.926 52.2031 287.754 51.8594C287.59 51.5156 287.348 51.2422 287.027 51.0391C286.715 50.8281 286.328 50.7227 285.867 50.7227C285.375 50.7227 284.973 50.8281 284.66 51.0391C284.348 51.2422 284.105 51.5234 283.934 51.8828C283.762 52.2344 283.641 52.6367 283.57 53.0898C283.508 53.5352 283.477 54.0039 283.477 54.4961V54.8359C283.477 55.3281 283.508 55.8008 283.57 56.2539C283.633 56.707 283.75 57.1094 283.922 57.4609C284.102 57.8125 284.348 58.0898 284.66 58.293C284.973 58.4961 285.379 58.5977 285.879 58.5977ZM298.992 61.2344C298.008 61.2344 297.125 61.0781 296.344 60.7656C295.562 60.4453 294.898 60.0039 294.352 59.4414C293.812 58.8789 293.398 58.2266 293.109 57.4844C292.82 56.7344 292.676 55.9375 292.676 55.0938V54.625C292.676 53.6641 292.812 52.7852 293.086 51.9883C293.359 51.1914 293.75 50.5 294.258 49.9141C294.773 49.3281 295.398 48.8789 296.133 48.5664C296.867 48.2461 297.695 48.0859 298.617 48.0859C299.516 48.0859 300.312 48.2344 301.008 48.5312C301.703 48.8281 302.285 49.25 302.754 49.7969C303.23 50.3438 303.59 51 303.832 51.7656C304.074 52.5234 304.195 53.3672 304.195 54.2969V55.7031H294.117V53.4531H300.879V53.1953C300.879 52.7266 300.793 52.3086 300.621 51.9414C300.457 51.5664 300.207 51.2695 299.871 51.0508C299.535 50.832 299.105 50.7227 298.582 50.7227C298.137 50.7227 297.754 50.8203 297.434 51.0156C297.113 51.2109 296.852 51.4844 296.648 51.8359C296.453 52.1875 296.305 52.6016 296.203 53.0781C296.109 53.5469 296.062 54.0625 296.062 54.625V55.0938C296.062 55.6016 296.133 56.0703 296.273 56.5C296.422 56.9297 296.629 57.3008 296.895 57.6133C297.168 57.9258 297.496 58.168 297.879 58.3398C298.27 58.5117 298.711 58.5977 299.203 58.5977C299.812 58.5977 300.379 58.4805 300.902 58.2461C301.434 58.0039 301.891 57.6406 302.273 57.1562L303.914 58.9375C303.648 59.3203 303.285 59.6875 302.824 60.0391C302.371 60.3906 301.824 60.6797 301.184 60.9062C300.543 61.125 299.812 61.2344 298.992 61.2344Z" fill="#888888"/>
<path d="M112.125 84.875V119H103.898V84.875H112.125ZM122.391 84.875V91.2266H93.8672V84.875H122.391ZM135.68 119.469C133.617 119.469 131.773 119.148 130.148 118.508C128.523 117.852 127.148 116.953 126.023 115.812C124.914 114.672 124.062 113.359 123.469 111.875C122.891 110.391 122.602 108.82 122.602 107.164V106.273C122.602 104.414 122.859 102.695 123.375 101.117C123.891 99.5234 124.656 98.1328 125.672 96.9453C126.688 95.7578 127.961 94.8359 129.492 94.1797C131.023 93.5078 132.805 93.1719 134.836 93.1719C136.633 93.1719 138.242 93.4609 139.664 94.0391C141.086 94.6172 142.289 95.4453 143.273 96.5234C144.273 97.6016 145.031 98.9062 145.547 100.438C146.078 101.969 146.344 103.688 146.344 105.594V108.805H125.625V103.859H138.633V103.25C138.648 102.406 138.5 101.688 138.188 101.094C137.891 100.5 137.453 100.047 136.875 99.7344C136.297 99.4219 135.594 99.2656 134.766 99.2656C133.906 99.2656 133.195 99.4531 132.633 99.8281C132.086 100.203 131.656 100.719 131.344 101.375C131.047 102.016 130.836 102.758 130.711 103.602C130.586 104.445 130.523 105.336 130.523 106.273V107.164C130.523 108.102 130.648 108.953 130.898 109.719C131.164 110.484 131.539 111.141 132.023 111.688C132.523 112.219 133.117 112.633 133.805 112.93C134.508 113.227 135.305 113.375 136.195 113.375C137.273 113.375 138.336 113.172 139.383 112.766C140.43 112.359 141.328 111.688 142.078 110.75L145.664 115.016C145.148 115.75 144.414 116.461 143.461 117.148C142.523 117.836 141.398 118.398 140.086 118.836C138.773 119.258 137.305 119.469 135.68 119.469ZM160.266 113.375C161 113.375 161.625 113.242 162.141 112.977C162.672 112.695 163.07 112.305 163.336 111.805C163.617 111.289 163.75 110.672 163.734 109.953H171.164C171.18 111.859 170.711 113.531 169.758 114.969C168.82 116.391 167.539 117.5 165.914 118.297C164.305 119.078 162.484 119.469 160.453 119.469C158.469 119.469 156.734 119.148 155.25 118.508C153.766 117.852 152.523 116.945 151.523 115.789C150.539 114.617 149.797 113.25 149.297 111.688C148.812 110.125 148.57 108.43 148.57 106.602V106.062C148.57 104.234 148.812 102.539 149.297 100.977C149.797 99.3984 150.539 98.0312 151.523 96.875C152.523 95.7031 153.758 94.7969 155.227 94.1562C156.711 93.5 158.438 93.1719 160.406 93.1719C162.516 93.1719 164.375 93.5703 165.984 94.3672C167.609 95.1641 168.883 96.3203 169.805 97.8359C170.727 99.3516 171.18 101.188 171.164 103.344H163.734C163.75 102.578 163.633 101.891 163.383 101.281C163.133 100.672 162.742 100.188 162.211 99.8281C161.695 99.4531 161.031 99.2656 160.219 99.2656C159.406 99.2656 158.75 99.4453 158.25 99.8047C157.75 100.164 157.367 100.664 157.102 101.305C156.852 101.93 156.68 102.648 156.586 103.461C156.508 104.273 156.469 105.141 156.469 106.062V106.602C156.469 107.539 156.508 108.422 156.586 109.25C156.68 110.062 156.859 110.781 157.125 111.406C157.391 112.016 157.773 112.5 158.273 112.859C158.773 113.203 159.438 113.375 160.266 113.375ZM182.273 83V119H174.375V83H182.273ZM181.336 105.453L179.484 105.5C179.484 103.719 179.703 102.078 180.141 100.578C180.578 99.0781 181.203 97.7734 182.016 96.6641C182.828 95.5547 183.805 94.6953 184.945 94.0859C186.086 93.4766 187.352 93.1719 188.742 93.1719C189.992 93.1719 191.133 93.3516 192.164 93.7109C193.211 94.0703 194.109 94.6484 194.859 95.4453C195.625 96.2422 196.211 97.2812 196.617 98.5625C197.039 99.8438 197.25 101.406 197.25 103.25V119H189.305V103.203C189.305 102.172 189.156 101.375 188.859 100.812C188.578 100.234 188.172 99.8359 187.641 99.6172C187.109 99.3828 186.461 99.2656 185.695 99.2656C184.773 99.2656 184.023 99.4219 183.445 99.7344C182.867 100.047 182.422 100.484 182.109 101.047C181.812 101.594 181.609 102.242 181.5 102.992C181.391 103.742 181.336 104.562 181.336 105.453ZM231.539 109.93C231.539 109.398 231.461 108.922 231.305 108.5C231.148 108.062 230.859 107.656 230.438 107.281C230.016 106.906 229.406 106.531 228.609 106.156C227.828 105.766 226.797 105.359 225.516 104.938C224.016 104.438 222.57 103.875 221.18 103.25C219.789 102.609 218.547 101.867 217.453 101.023C216.359 100.164 215.492 99.1641 214.852 98.0234C214.211 96.8672 213.891 95.5234 213.891 93.9922C213.891 92.5234 214.219 91.2031 214.875 90.0312C215.531 88.8438 216.445 87.8359 217.617 87.0078C218.805 86.1641 220.195 85.5234 221.789 85.0859C223.383 84.6328 225.125 84.4062 227.016 84.4062C229.516 84.4062 231.719 84.8438 233.625 85.7188C235.547 86.5781 237.047 87.8047 238.125 89.3984C239.219 90.9766 239.766 92.8438 239.766 95H231.586C231.586 94.1406 231.406 93.3828 231.047 92.7266C230.703 92.0703 230.18 91.5547 229.477 91.1797C228.773 90.8047 227.891 90.6172 226.828 90.6172C225.797 90.6172 224.93 90.7734 224.227 91.0859C223.523 91.3984 222.992 91.8203 222.633 92.3516C222.273 92.8672 222.094 93.4375 222.094 94.0625C222.094 94.5781 222.234 95.0469 222.516 95.4688C222.812 95.875 223.227 96.2578 223.758 96.6172C224.305 96.9766 224.961 97.3203 225.727 97.6484C226.508 97.9766 227.383 98.2969 228.352 98.6094C230.164 99.1875 231.773 99.8359 233.18 100.555C234.602 101.258 235.797 102.062 236.766 102.969C237.75 103.859 238.492 104.875 238.992 106.016C239.508 107.156 239.766 108.445 239.766 109.883C239.766 111.414 239.469 112.773 238.875 113.961C238.281 115.148 237.43 116.156 236.32 116.984C235.211 117.797 233.883 118.414 232.336 118.836C230.789 119.258 229.062 119.469 227.156 119.469C225.406 119.469 223.68 119.25 221.977 118.812C220.289 118.359 218.758 117.672 217.383 116.75C216.008 115.812 214.906 114.617 214.078 113.164C213.266 111.695 212.859 109.953 212.859 107.938H221.109C221.109 108.938 221.242 109.781 221.508 110.469C221.773 111.156 222.164 111.711 222.68 112.133C223.195 112.539 223.828 112.836 224.578 113.023C225.328 113.195 226.188 113.281 227.156 113.281C228.203 113.281 229.047 113.133 229.688 112.836C230.328 112.523 230.797 112.117 231.094 111.617C231.391 111.102 231.539 110.539 231.539 109.93ZM256.992 93.6406V99.125H241.711V93.6406H256.992ZM244.922 87.3359H252.82V110.727C252.82 111.398 252.898 111.922 253.055 112.297C253.211 112.656 253.477 112.914 253.852 113.07C254.242 113.211 254.758 113.281 255.398 113.281C255.852 113.281 256.227 113.273 256.523 113.258C256.82 113.227 257.102 113.188 257.367 113.141V118.789C256.695 119.008 255.992 119.172 255.258 119.281C254.523 119.406 253.742 119.469 252.914 119.469C251.227 119.469 249.781 119.203 248.578 118.672C247.391 118.141 246.484 117.305 245.859 116.164C245.234 115.023 244.922 113.539 244.922 111.711V87.3359ZM273.305 112.625V102.172C273.305 101.453 273.203 100.836 273 100.32C272.797 99.8047 272.477 99.4062 272.039 99.125C271.602 98.8281 271.016 98.6797 270.281 98.6797C269.688 98.6797 269.18 98.7812 268.758 98.9844C268.336 99.1875 268.016 99.4922 267.797 99.8984C267.578 100.305 267.469 100.82 267.469 101.445H259.57C259.57 100.273 259.828 99.1875 260.344 98.1875C260.875 97.1719 261.625 96.2891 262.594 95.5391C263.578 94.7891 264.75 94.2109 266.109 93.8047C267.484 93.3828 269.016 93.1719 270.703 93.1719C272.719 93.1719 274.516 93.5078 276.094 94.1797C277.688 94.8516 278.945 95.8594 279.867 97.2031C280.789 98.5312 281.25 100.203 281.25 102.219V112.602C281.25 114.258 281.344 115.516 281.531 116.375C281.719 117.219 281.984 117.961 282.328 118.602V119H274.406C274.031 118.219 273.75 117.266 273.562 116.141C273.391 115 273.305 113.828 273.305 112.625ZM274.266 103.508L274.312 107.727H270.82C270.086 107.727 269.461 107.828 268.945 108.031C268.445 108.234 268.039 108.516 267.727 108.875C267.43 109.219 267.211 109.609 267.07 110.047C266.945 110.484 266.883 110.945 266.883 111.43C266.883 111.898 266.992 112.32 267.211 112.695C267.445 113.055 267.758 113.336 268.148 113.539C268.539 113.742 268.977 113.844 269.461 113.844C270.336 113.844 271.078 113.68 271.688 113.352C272.312 113.008 272.789 112.594 273.117 112.109C273.445 111.625 273.609 111.172 273.609 110.75L275.344 113.984C275.031 114.609 274.672 115.242 274.266 115.883C273.875 116.523 273.383 117.117 272.789 117.664C272.211 118.195 271.5 118.633 270.656 118.977C269.812 119.305 268.789 119.469 267.586 119.469C266.023 119.469 264.586 119.148 263.273 118.508C261.977 117.867 260.938 116.977 260.156 115.836C259.375 114.68 258.984 113.352 258.984 111.852C258.984 110.539 259.219 109.367 259.688 108.336C260.172 107.305 260.898 106.43 261.867 105.711C262.836 104.992 264.07 104.445 265.57 104.07C267.07 103.695 268.836 103.508 270.867 103.508H274.266ZM296.344 113.375C297.078 113.375 297.703 113.242 298.219 112.977C298.75 112.695 299.148 112.305 299.414 111.805C299.695 111.289 299.828 110.672 299.812 109.953H307.242C307.258 111.859 306.789 113.531 305.836 114.969C304.898 116.391 303.617 117.5 301.992 118.297C300.383 119.078 298.562 119.469 296.531 119.469C294.547 119.469 292.812 119.148 291.328 118.508C289.844 117.852 288.602 116.945 287.602 115.789C286.617 114.617 285.875 113.25 285.375 111.688C284.891 110.125 284.648 108.43 284.648 106.602V106.062C284.648 104.234 284.891 102.539 285.375 100.977C285.875 99.3984 286.617 98.0312 287.602 96.875C288.602 95.7031 289.836 94.7969 291.305 94.1562C292.789 93.5 294.516 93.1719 296.484 93.1719C298.594 93.1719 300.453 93.5703 302.062 94.3672C303.688 95.1641 304.961 96.3203 305.883 97.8359C306.805 99.3516 307.258 101.188 307.242 103.344H299.812C299.828 102.578 299.711 101.891 299.461 101.281C299.211 100.672 298.82 100.188 298.289 99.8281C297.773 99.4531 297.109 99.2656 296.297 99.2656C295.484 99.2656 294.828 99.4453 294.328 99.8047C293.828 100.164 293.445 100.664 293.18 101.305C292.93 101.93 292.758 102.648 292.664 103.461C292.586 104.273 292.547 105.141 292.547 106.062V106.602C292.547 107.539 292.586 108.422 292.664 109.25C292.758 110.062 292.938 110.781 293.203 111.406C293.469 112.016 293.852 112.5 294.352 112.859C294.852 113.203 295.516 113.375 296.344 113.375ZM318.586 82.9766V119H310.688V82.9766H318.586ZM334.805 93.6406L323.789 106.555L318.023 112.32L314.578 107.305L319.383 101.047L325.336 93.6406H334.805ZM326.344 119L319.57 107.445L325.406 103.297L335.391 119H326.344ZM350.156 111.875C350.156 111.438 350.008 111.062 349.711 110.75C349.43 110.422 348.93 110.125 348.211 109.859C347.492 109.578 346.484 109.297 345.188 109.016C343.953 108.75 342.789 108.398 341.695 107.961C340.617 107.523 339.672 106.992 338.859 106.367C338.047 105.742 337.406 105 336.938 104.141C336.484 103.281 336.258 102.297 336.258 101.188C336.258 100.109 336.484 99.0938 336.938 98.1406C337.406 97.1719 338.086 96.3203 338.977 95.5859C339.883 94.8359 340.984 94.25 342.281 93.8281C343.578 93.3906 345.055 93.1719 346.711 93.1719C348.992 93.1719 350.961 93.5234 352.617 94.2266C354.273 94.9141 355.547 95.8828 356.438 97.1328C357.344 98.3672 357.797 99.7969 357.797 101.422H349.898C349.898 100.781 349.789 100.234 349.57 99.7812C349.367 99.3281 349.031 98.9844 348.562 98.75C348.094 98.5 347.469 98.375 346.688 98.375C346.141 98.375 345.641 98.4766 345.188 98.6797C344.75 98.8828 344.398 99.1641 344.133 99.5234C343.867 99.8828 343.734 100.305 343.734 100.789C343.734 101.133 343.812 101.445 343.969 101.727C344.141 101.992 344.398 102.242 344.742 102.477C345.086 102.695 345.523 102.898 346.055 103.086C346.586 103.258 347.227 103.414 347.977 103.555C349.68 103.867 351.273 104.312 352.758 104.891C354.242 105.469 355.445 106.289 356.367 107.352C357.305 108.414 357.773 109.844 357.773 111.641C357.773 112.766 357.516 113.805 357 114.758C356.484 115.695 355.742 116.523 354.773 117.242C353.805 117.945 352.641 118.492 351.281 118.883C349.922 119.273 348.391 119.469 346.688 119.469C344.266 119.469 342.219 119.039 340.547 118.18C338.875 117.305 337.609 116.211 336.75 114.898C335.906 113.57 335.484 112.227 335.484 110.867H342.844C342.875 111.648 343.062 112.289 343.406 112.789C343.766 113.289 344.242 113.656 344.836 113.891C345.43 114.125 346.117 114.242 346.898 114.242C347.617 114.242 348.211 114.141 348.68 113.938C349.164 113.734 349.531 113.461 349.781 113.117C350.031 112.758 350.156 112.344 350.156 111.875Z" fill="black"/>
<path d="M1134 0H1348C1356.28 0 1363 6.71573 1363 15V148C1363 156.284 1356.28 163 1348 163H1134V0Z" fill="#CFAD5C"/>
<path fill-rule="evenodd" clip-rule="evenodd" d="M1219.98 53C1219.85 53 1219.73 53.0527 1219.64 53.1464C1219.55 53.2402 1219.5 53.3674 1219.5 53.5V109.5C1219.5 109.633 1219.55 109.76 1219.64 109.854C1219.73 109.947 1219.85 110 1219.98 110H1277.02C1277.15 110 1277.27 109.947 1277.36 109.854C1277.45 109.76 1277.5 109.633 1277.5 109.5V64C1277.5 63.8674 1277.45 63.7402 1277.36 63.6464C1277.27 63.5527 1277.15 63.5 1277.02 63.5H1248.5C1247.65 63.5 1246.84 63.1045 1246.29 62.4206L1238.77 53H1219.98ZM1215.58 48.9038C1216.74 47.6848 1218.33 47 1219.98 47H1240.11C1240.97 47 1241.77 47.3955 1242.32 48.0794L1249.85 57.5H1277.02C1278.67 57.5 1280.26 58.1848 1281.42 59.4038C1282.59 60.6228 1283.25 62.2761 1283.25 64V109.5C1283.25 111.224 1282.59 112.877 1281.42 114.096C1280.26 115.315 1278.67 116 1277.02 116H1219.98C1218.33 116 1216.74 115.315 1215.58 114.096C1214.41 112.877 1213.75 111.224 1213.75 109.5V53.5C1213.75 51.7761 1214.41 50.1228 1215.58 48.9038Z" fill="white"/>
<path fill-rule="evenodd" clip-rule="evenodd" d="M1244.16 75.5251C1245.47 76.892 1245.47 79.108 1244.16 80.4749L1238.15 86.75L1244.16 93.0251C1245.47 94.392 1245.47 96.608 1244.16 97.9749C1242.85 99.3417 1240.73 99.3417 1239.42 97.9749L1231.03 89.2249C1229.72 87.858 1229.72 85.642 1231.03 84.2751L1239.42 75.5251C1240.73 74.1583 1242.85 74.1583 1244.16 75.5251Z" fill="white"/>
<path fill-rule="evenodd" clip-rule="evenodd" d="M1252.12 97.9749C1250.81 96.608 1250.81 94.392 1252.12 93.0251L1258.13 86.75L1252.12 80.4749C1250.81 79.108 1250.81 76.892 1252.12 75.5251C1253.43 74.1583 1255.55 74.1583 1256.86 75.5251L1265.25 84.2751C1266.56 85.642 1266.56 87.858 1265.25 89.2249L1256.86 97.9749C1255.55 99.3417 1253.43 99.3417 1252.12 97.9749Z" fill="white"/>
</svg>
