<svg width="1363" height="163" viewBox="0 0 1363 163" fill="none" xmlns="http://www.w3.org/2000/svg">
<path d="M0 15C0 6.71573 6.71573 0 15 0H37V163H15C6.71573 163 0 156.284 0 148V15Z" fill="#424242"/>
<rect width="1097" height="163" transform="translate(37)" fill="#F0F0F0"/>
<path d="M105.973 58.2578V61H96.8906V58.2578H105.973ZM98.0391 43.9375V61H94.5234V43.9375H98.0391ZM104.789 50.8867V53.5586H96.8906V50.8867H104.789ZM105.961 43.9375V46.6914H96.8906V43.9375H105.961ZM111.82 58.5391L114.633 48.3203H118.16L113.883 61H111.75L111.82 58.5391ZM109.887 48.3203L112.711 58.5508L112.77 61H110.625L106.348 48.3203H109.887ZM125.344 61.2344C124.359 61.2344 123.477 61.0781 122.695 60.7656C121.914 60.4453 121.25 60.0039 120.703 59.4414C120.164 58.8789 119.75 58.2266 119.461 57.4844C119.172 56.7344 119.027 55.9375 119.027 55.0938V54.625C119.027 53.6641 119.164 52.7852 119.438 51.9883C119.711 51.1914 120.102 50.5 120.609 49.9141C121.125 49.3281 121.75 48.8789 122.484 48.5664C123.219 48.2461 124.047 48.0859 124.969 48.0859C125.867 48.0859 126.664 48.2344 127.359 48.5312C128.055 48.8281 128.637 49.25 129.105 49.7969C129.582 50.3438 129.941 51 130.184 51.7656C130.426 52.5234 130.547 53.3672 130.547 54.2969V55.7031H120.469V53.4531H127.23V53.1953C127.23 52.7266 127.145 52.3086 126.973 51.9414C126.809 51.5664 126.559 51.2695 126.223 51.0508C125.887 50.832 125.457 50.7227 124.934 50.7227C124.488 50.7227 124.105 50.8203 123.785 51.0156C123.465 51.2109 123.203 51.4844 123 51.8359C122.805 52.1875 122.656 52.6016 122.555 53.0781C122.461 53.5469 122.414 54.0625 122.414 54.625V55.0938C122.414 55.6016 122.484 56.0703 122.625 56.5C122.773 56.9297 122.98 57.3008 123.246 57.6133C123.52 57.9258 123.848 58.168 124.23 58.3398C124.621 58.5117 125.062 58.5977 125.555 58.5977C126.164 58.5977 126.73 58.4805 127.254 58.2461C127.785 58.0039 128.242 57.6406 128.625 57.1562L130.266 58.9375C130 59.3203 129.637 59.6875 129.176 60.0391C128.723 60.3906 128.176 60.6797 127.535 60.9062C126.895 61.125 126.164 61.2344 125.344 61.2344ZM135.844 51.0859V61H132.469V48.3203H135.645L135.844 51.0859ZM139.664 48.2383L139.605 51.3672C139.441 51.3438 139.242 51.3242 139.008 51.3086C138.781 51.2852 138.574 51.2734 138.387 51.2734C137.91 51.2734 137.496 51.3359 137.145 51.4609C136.801 51.5781 136.512 51.7539 136.277 51.9883C136.051 52.2227 135.879 52.5078 135.762 52.8438C135.652 53.1797 135.59 53.5625 135.574 53.9922L134.895 53.7812C134.895 52.9609 134.977 52.207 135.141 51.5195C135.305 50.8242 135.543 50.2188 135.855 49.7031C136.176 49.1875 136.566 48.7891 137.027 48.5078C137.488 48.2266 138.016 48.0859 138.609 48.0859C138.797 48.0859 138.988 48.1016 139.184 48.1328C139.379 48.1562 139.539 48.1914 139.664 48.2383ZM154.383 46.8555L149.742 61H146.004L152.344 43.9375H154.723L154.383 46.8555ZM158.238 61L153.586 46.8555L153.211 43.9375H155.613L161.988 61H158.238ZM158.027 54.6484V57.4023H149.016V54.6484H158.027ZM167.66 61H164.262V47.1953C164.262 46.2344 164.449 45.4258 164.824 44.7695C165.207 44.1055 165.742 43.6055 166.43 43.2695C167.125 42.9258 167.949 42.7539 168.902 42.7539C169.215 42.7539 169.516 42.7773 169.805 42.8242C170.094 42.8633 170.375 42.9141 170.648 42.9766L170.613 45.5195C170.465 45.4805 170.309 45.4531 170.145 45.4375C169.98 45.4219 169.789 45.4141 169.57 45.4141C169.164 45.4141 168.816 45.4844 168.527 45.625C168.246 45.7578 168.031 45.957 167.883 46.2227C167.734 46.4883 167.66 46.8125 167.66 47.1953V61ZM170.191 48.3203V50.7109H162.375V48.3203H170.191ZM178.172 48.3203V50.7109H170.789V48.3203H178.172ZM172.617 45.1914H175.992V57.1797C175.992 57.5469 176.039 57.8281 176.133 58.0234C176.234 58.2188 176.383 58.3555 176.578 58.4336C176.773 58.5039 177.02 58.5391 177.316 58.5391C177.527 58.5391 177.715 58.5312 177.879 58.5156C178.051 58.4922 178.195 58.4688 178.312 58.4453L178.324 60.9297C178.035 61.0234 177.723 61.0977 177.387 61.1523C177.051 61.207 176.68 61.2344 176.273 61.2344C175.531 61.2344 174.883 61.1133 174.328 60.8711C173.781 60.6211 173.359 60.2227 173.062 59.6758C172.766 59.1289 172.617 58.4102 172.617 57.5195V45.1914ZM185.93 61.2344C184.945 61.2344 184.062 61.0781 183.281 60.7656C182.5 60.4453 181.836 60.0039 181.289 59.4414C180.75 58.8789 180.336 58.2266 180.047 57.4844C179.758 56.7344 179.613 55.9375 179.613 55.0938V54.625C179.613 53.6641 179.75 52.7852 180.023 51.9883C180.297 51.1914 180.688 50.5 181.195 49.9141C181.711 49.3281 182.336 48.8789 183.07 48.5664C183.805 48.2461 184.633 48.0859 185.555 48.0859C186.453 48.0859 187.25 48.2344 187.945 48.5312C188.641 48.8281 189.223 49.25 189.691 49.7969C190.168 50.3438 190.527 51 190.77 51.7656C191.012 52.5234 191.133 53.3672 191.133 54.2969V55.7031H181.055V53.4531H187.816V53.1953C187.816 52.7266 187.73 52.3086 187.559 51.9414C187.395 51.5664 187.145 51.2695 186.809 51.0508C186.473 50.832 186.043 50.7227 185.52 50.7227C185.074 50.7227 184.691 50.8203 184.371 51.0156C184.051 51.2109 183.789 51.4844 183.586 51.8359C183.391 52.1875 183.242 52.6016 183.141 53.0781C183.047 53.5469 183 54.0625 183 54.625V55.0938C183 55.6016 183.07 56.0703 183.211 56.5C183.359 56.9297 183.566 57.3008 183.832 57.6133C184.105 57.9258 184.434 58.168 184.816 58.3398C185.207 58.5117 185.648 58.5977 186.141 58.5977C186.75 58.5977 187.316 58.4805 187.84 58.2461C188.371 58.0039 188.828 57.6406 189.211 57.1562L190.852 58.9375C190.586 59.3203 190.223 59.6875 189.762 60.0391C189.309 60.3906 188.762 60.6797 188.121 60.9062C187.48 61.125 186.75 61.2344 185.93 61.2344ZM196.43 51.0859V61H193.055V48.3203H196.23L196.43 51.0859ZM200.25 48.2383L200.191 51.3672C200.027 51.3438 199.828 51.3242 199.594 51.3086C199.367 51.2852 199.16 51.2734 198.973 51.2734C198.496 51.2734 198.082 51.3359 197.73 51.4609C197.387 51.5781 197.098 51.7539 196.863 51.9883C196.637 52.2227 196.465 52.5078 196.348 52.8438C196.238 53.1797 196.176 53.5625 196.16 53.9922L195.48 53.7812C195.48 52.9609 195.562 52.207 195.727 51.5195C195.891 50.8242 196.129 50.2188 196.441 49.7031C196.762 49.1875 197.152 48.7891 197.613 48.5078C198.074 48.2266 198.602 48.0859 199.195 48.0859C199.383 48.0859 199.574 48.1016 199.77 48.1328C199.965 48.1562 200.125 48.1914 200.25 48.2383ZM219.48 58.2578V61H210.398V58.2578H219.48ZM211.547 43.9375V61H208.031V43.9375H211.547ZM218.297 50.8867V53.5586H210.398V50.8867H218.297ZM219.469 43.9375V46.6914H210.398V43.9375H219.469ZM224.883 43V61H221.496V43H224.883ZM233.508 61.2344C232.523 61.2344 231.641 61.0781 230.859 60.7656C230.078 60.4453 229.414 60.0039 228.867 59.4414C228.328 58.8789 227.914 58.2266 227.625 57.4844C227.336 56.7344 227.191 55.9375 227.191 55.0938V54.625C227.191 53.6641 227.328 52.7852 227.602 51.9883C227.875 51.1914 228.266 50.5 228.773 49.9141C229.289 49.3281 229.914 48.8789 230.648 48.5664C231.383 48.2461 232.211 48.0859 233.133 48.0859C234.031 48.0859 234.828 48.2344 235.523 48.5312C236.219 48.8281 236.801 49.25 237.27 49.7969C237.746 50.3438 238.105 51 238.348 51.7656C238.59 52.5234 238.711 53.3672 238.711 54.2969V55.7031H228.633V53.4531H235.395V53.1953C235.395 52.7266 235.309 52.3086 235.137 51.9414C234.973 51.5664 234.723 51.2695 234.387 51.0508C234.051 50.832 233.621 50.7227 233.098 50.7227C232.652 50.7227 232.27 50.8203 231.949 51.0156C231.629 51.2109 231.367 51.4844 231.164 51.8359C230.969 52.1875 230.82 52.6016 230.719 53.0781C230.625 53.5469 230.578 54.0625 230.578 54.625V55.0938C230.578 55.6016 230.648 56.0703 230.789 56.5C230.938 56.9297 231.145 57.3008 231.41 57.6133C231.684 57.9258 232.012 58.168 232.395 58.3398C232.785 58.5117 233.227 58.5977 233.719 58.5977C234.328 58.5977 234.895 58.4805 235.418 58.2461C235.949 58.0039 236.406 57.6406 236.789 57.1562L238.43 58.9375C238.164 59.3203 237.801 59.6875 237.34 60.0391C236.887 60.3906 236.34 60.6797 235.699 60.9062C235.059 61.125 234.328 61.2344 233.508 61.2344ZM248.66 48.3203H251.719V60.5781C251.719 61.7344 251.461 62.7148 250.945 63.5195C250.438 64.332 249.727 64.9453 248.812 65.3594C247.898 65.7812 246.836 65.9922 245.625 65.9922C245.094 65.9922 244.531 65.9219 243.938 65.7812C243.352 65.6406 242.789 65.4219 242.25 65.125C241.719 64.8281 241.273 64.4531 240.914 64L242.402 62.0078C242.793 62.4609 243.246 62.8125 243.762 63.0625C244.277 63.3203 244.848 63.4492 245.473 63.4492C246.082 63.4492 246.598 63.3359 247.02 63.1094C247.441 62.8906 247.766 62.5664 247.992 62.1367C248.219 61.7148 248.332 61.2031 248.332 60.6016V51.25L248.66 48.3203ZM240.129 54.8125V54.5664C240.129 53.5977 240.246 52.7188 240.48 51.9297C240.723 51.1328 241.062 50.4492 241.5 49.8789C241.945 49.3086 242.484 48.8672 243.117 48.5547C243.75 48.2422 244.465 48.0859 245.262 48.0859C246.105 48.0859 246.812 48.2422 247.383 48.5547C247.953 48.8672 248.422 49.3125 248.789 49.8906C249.156 50.4609 249.441 51.1367 249.645 51.918C249.855 52.6914 250.02 53.5391 250.137 54.4609V55C250.02 55.8828 249.844 56.7031 249.609 57.4609C249.375 58.2188 249.066 58.8828 248.684 59.4531C248.301 60.0156 247.824 60.4531 247.254 60.7656C246.691 61.0781 246.02 61.2344 245.238 61.2344C244.457 61.2344 243.75 61.0742 243.117 60.7539C242.492 60.4336 241.957 59.9844 241.512 59.4062C241.066 58.8281 240.723 58.1484 240.48 57.3672C240.246 56.5859 240.129 55.7344 240.129 54.8125ZM243.504 54.5664V54.8125C243.504 55.3359 243.555 55.8242 243.656 56.2773C243.758 56.7305 243.914 57.1328 244.125 57.4844C244.344 57.8281 244.613 58.0977 244.934 58.293C245.262 58.4805 245.648 58.5742 246.094 58.5742C246.711 58.5742 247.215 58.4453 247.605 58.1875C247.996 57.9219 248.289 57.5586 248.484 57.0977C248.68 56.6367 248.793 56.1055 248.824 55.5039V53.9688C248.809 53.4766 248.742 53.0352 248.625 52.6445C248.508 52.2461 248.344 51.9062 248.133 51.625C247.922 51.3438 247.648 51.125 247.312 50.9688C246.977 50.8125 246.578 50.7344 246.117 50.7344C245.672 50.7344 245.285 50.8359 244.957 51.0391C244.637 51.2344 244.367 51.5039 244.148 51.8477C243.938 52.1914 243.777 52.5977 243.668 53.0664C243.559 53.5273 243.504 54.0273 243.504 54.5664ZM261.188 58.1406V52.4922C261.188 52.0859 261.121 51.7383 260.988 51.4492C260.855 51.1523 260.648 50.9219 260.367 50.7578C260.094 50.5938 259.738 50.5117 259.301 50.5117C258.926 50.5117 258.602 50.5781 258.328 50.7109C258.055 50.8359 257.844 51.0195 257.695 51.2617C257.547 51.4961 257.473 51.7734 257.473 52.0938H254.098C254.098 51.5547 254.223 51.043 254.473 50.5586C254.723 50.0742 255.086 49.6484 255.562 49.2812C256.039 48.9062 256.605 48.6133 257.262 48.4023C257.926 48.1914 258.668 48.0859 259.488 48.0859C260.473 48.0859 261.348 48.25 262.113 48.5781C262.879 48.9062 263.48 49.3984 263.918 50.0547C264.363 50.7109 264.586 51.5312 264.586 52.5156V57.9414C264.586 58.6367 264.629 59.207 264.715 59.6523C264.801 60.0898 264.926 60.4727 265.09 60.8008V61H261.68C261.516 60.6562 261.391 60.2266 261.305 59.7109C261.227 59.1875 261.188 58.6641 261.188 58.1406ZM261.633 53.2773L261.656 55.1875H259.77C259.324 55.1875 258.938 55.2383 258.609 55.3398C258.281 55.4414 258.012 55.5859 257.801 55.7734C257.59 55.9531 257.434 56.1641 257.332 56.4062C257.238 56.6484 257.191 56.9141 257.191 57.2031C257.191 57.4922 257.258 57.7539 257.391 57.9883C257.523 58.2148 257.715 58.3945 257.965 58.5273C258.215 58.6523 258.508 58.7148 258.844 58.7148C259.352 58.7148 259.793 58.6133 260.168 58.4102C260.543 58.207 260.832 57.957 261.035 57.6602C261.246 57.3633 261.355 57.082 261.363 56.8164L262.254 58.2461C262.129 58.5664 261.957 58.8984 261.738 59.2422C261.527 59.5859 261.258 59.9102 260.93 60.2148C260.602 60.5117 260.207 60.7578 259.746 60.9531C259.285 61.1406 258.738 61.2344 258.105 61.2344C257.301 61.2344 256.57 61.0742 255.914 60.7539C255.266 60.4258 254.75 59.9766 254.367 59.4062C253.992 58.8281 253.805 58.1719 253.805 57.4375C253.805 56.7734 253.93 56.1836 254.18 55.668C254.43 55.1523 254.797 54.7188 255.281 54.3672C255.773 54.0078 256.387 53.7383 257.121 53.5586C257.855 53.3711 258.707 53.2773 259.676 53.2773H261.633ZM270.492 51.0273V61H267.117V48.3203H270.281L270.492 51.0273ZM270 54.2148H269.086C269.086 53.2773 269.207 52.4336 269.449 51.6836C269.691 50.9258 270.031 50.2812 270.469 49.75C270.906 49.2109 271.426 48.8008 272.027 48.5195C272.637 48.2305 273.316 48.0859 274.066 48.0859C274.66 48.0859 275.203 48.1719 275.695 48.3438C276.188 48.5156 276.609 48.7891 276.961 49.1641C277.32 49.5391 277.594 50.0352 277.781 50.6523C277.977 51.2695 278.074 52.0234 278.074 52.9141V61H274.676V52.9023C274.676 52.3398 274.598 51.9023 274.441 51.5898C274.285 51.2773 274.055 51.0586 273.75 50.9336C273.453 50.8008 273.086 50.7344 272.648 50.7344C272.195 50.7344 271.801 50.8242 271.465 51.0039C271.137 51.1836 270.863 51.4336 270.645 51.7539C270.434 52.0664 270.273 52.4336 270.164 52.8555C270.055 53.2773 270 53.7305 270 54.2148ZM285.879 58.5977C286.293 58.5977 286.66 58.5195 286.98 58.3633C287.301 58.1992 287.551 57.9727 287.73 57.6836C287.918 57.3867 288.016 57.0391 288.023 56.6406H291.199C291.191 57.5312 290.953 58.3242 290.484 59.0195C290.016 59.707 289.387 60.25 288.598 60.6484C287.809 61.0391 286.926 61.2344 285.949 61.2344C284.965 61.2344 284.105 61.0703 283.371 60.7422C282.645 60.4141 282.039 59.9609 281.555 59.3828C281.07 58.7969 280.707 58.1172 280.465 57.3438C280.223 56.5625 280.102 55.7266 280.102 54.8359V54.4961C280.102 53.5977 280.223 52.7617 280.465 51.9883C280.707 51.207 281.07 50.5273 281.555 49.9492C282.039 49.3633 282.645 48.9062 283.371 48.5781C284.098 48.25 284.949 48.0859 285.926 48.0859C286.965 48.0859 287.875 48.2852 288.656 48.6836C289.445 49.082 290.062 49.6523 290.508 50.3945C290.961 51.1289 291.191 52 291.199 53.0078H288.023C288.016 52.5859 287.926 52.2031 287.754 51.8594C287.59 51.5156 287.348 51.2422 287.027 51.0391C286.715 50.8281 286.328 50.7227 285.867 50.7227C285.375 50.7227 284.973 50.8281 284.66 51.0391C284.348 51.2422 284.105 51.5234 283.934 51.8828C283.762 52.2344 283.641 52.6367 283.57 53.0898C283.508 53.5352 283.477 54.0039 283.477 54.4961V54.8359C283.477 55.3281 283.508 55.8008 283.57 56.2539C283.633 56.707 283.75 57.1094 283.922 57.4609C284.102 57.8125 284.348 58.0898 284.66 58.293C284.973 58.4961 285.379 58.5977 285.879 58.5977ZM298.992 61.2344C298.008 61.2344 297.125 61.0781 296.344 60.7656C295.562 60.4453 294.898 60.0039 294.352 59.4414C293.812 58.8789 293.398 58.2266 293.109 57.4844C292.82 56.7344 292.676 55.9375 292.676 55.0938V54.625C292.676 53.6641 292.812 52.7852 293.086 51.9883C293.359 51.1914 293.75 50.5 294.258 49.9141C294.773 49.3281 295.398 48.8789 296.133 48.5664C296.867 48.2461 297.695 48.0859 298.617 48.0859C299.516 48.0859 300.312 48.2344 301.008 48.5312C301.703 48.8281 302.285 49.25 302.754 49.7969C303.23 50.3438 303.59 51 303.832 51.7656C304.074 52.5234 304.195 53.3672 304.195 54.2969V55.7031H294.117V53.4531H300.879V53.1953C300.879 52.7266 300.793 52.3086 300.621 51.9414C300.457 51.5664 300.207 51.2695 299.871 51.0508C299.535 50.832 299.105 50.7227 298.582 50.7227C298.137 50.7227 297.754 50.8203 297.434 51.0156C297.113 51.2109 296.852 51.4844 296.648 51.8359C296.453 52.1875 296.305 52.6016 296.203 53.0781C296.109 53.5469 296.062 54.0625 296.062 54.625V55.0938C296.062 55.6016 296.133 56.0703 296.273 56.5C296.422 56.9297 296.629 57.3008 296.895 57.6133C297.168 57.9258 297.496 58.168 297.879 58.3398C298.27 58.5117 298.711 58.5977 299.203 58.5977C299.812 58.5977 300.379 58.4805 300.902 58.2461C301.434 58.0039 301.891 57.6406 302.273 57.1562L303.914 58.9375C303.648 59.3203 303.285 59.6875 302.824 60.0391C302.371 60.3906 301.824 60.6797 301.184 60.9062C300.543 61.125 299.812 61.2344 298.992 61.2344Z" fill="#888888"/>
<path d="M110.062 92.0469L101.742 119H92.9062L105.445 84.875H111.047L110.062 92.0469ZM116.953 119L108.609 92.0469L107.531 84.875H113.203L125.812 119H116.953ZM116.625 106.273V112.625H99.1172V106.273H116.625ZM135.258 115.906L142.055 84.875H146.109L148.312 87.5234L141.07 119H136.594L135.258 115.906ZM133.453 84.875L139.195 116.141L137.719 119H132.539L125.297 84.875H133.453ZM152.039 115.977L157.734 84.875H165.867L158.625 119H153.469L152.039 115.977ZM149.039 84.875L156 116.094L154.594 119H150.117L142.711 87.4766L145.008 84.875H149.039ZM186.68 109.93C186.68 109.398 186.602 108.922 186.445 108.5C186.289 108.062 186 107.656 185.578 107.281C185.156 106.906 184.547 106.531 183.75 106.156C182.969 105.766 181.938 105.359 180.656 104.938C179.156 104.438 177.711 103.875 176.32 103.25C174.93 102.609 173.688 101.867 172.594 101.023C171.5 100.164 170.633 99.1641 169.992 98.0234C169.352 96.8672 169.031 95.5234 169.031 93.9922C169.031 92.5234 169.359 91.2031 170.016 90.0312C170.672 88.8438 171.586 87.8359 172.758 87.0078C173.945 86.1641 175.336 85.5234 176.93 85.0859C178.523 84.6328 180.266 84.4062 182.156 84.4062C184.656 84.4062 186.859 84.8438 188.766 85.7188C190.688 86.5781 192.188 87.8047 193.266 89.3984C194.359 90.9766 194.906 92.8438 194.906 95H186.727C186.727 94.1406 186.547 93.3828 186.188 92.7266C185.844 92.0703 185.32 91.5547 184.617 91.1797C183.914 90.8047 183.031 90.6172 181.969 90.6172C180.938 90.6172 180.07 90.7734 179.367 91.0859C178.664 91.3984 178.133 91.8203 177.773 92.3516C177.414 92.8672 177.234 93.4375 177.234 94.0625C177.234 94.5781 177.375 95.0469 177.656 95.4688C177.953 95.875 178.367 96.2578 178.898 96.6172C179.445 96.9766 180.102 97.3203 180.867 97.6484C181.648 97.9766 182.523 98.2969 183.492 98.6094C185.305 99.1875 186.914 99.8359 188.32 100.555C189.742 101.258 190.938 102.062 191.906 102.969C192.891 103.859 193.633 104.875 194.133 106.016C194.648 107.156 194.906 108.445 194.906 109.883C194.906 111.414 194.609 112.773 194.016 113.961C193.422 115.148 192.57 116.156 191.461 116.984C190.352 117.797 189.023 118.414 187.477 118.836C185.93 119.258 184.203 119.469 182.297 119.469C180.547 119.469 178.82 119.25 177.117 118.812C175.43 118.359 173.898 117.672 172.523 116.75C171.148 115.812 170.047 114.617 169.219 113.164C168.406 111.695 168 109.953 168 107.938H176.25C176.25 108.938 176.383 109.781 176.648 110.469C176.914 111.156 177.305 111.711 177.82 112.133C178.336 112.539 178.969 112.836 179.719 113.023C180.469 113.195 181.328 113.281 182.297 113.281C183.344 113.281 184.188 113.133 184.828 112.836C185.469 112.523 185.938 112.117 186.234 111.617C186.531 111.102 186.68 110.539 186.68 109.93ZM222.188 119H214.617L214.664 112.672H222.188C223.75 112.672 225.07 112.297 226.148 111.547C227.242 110.797 228.07 109.68 228.633 108.195C229.211 106.695 229.5 104.852 229.5 102.664V101.188C229.5 99.5469 229.336 98.1094 229.008 96.875C228.695 95.625 228.227 94.5859 227.602 93.7578C226.977 92.9141 226.195 92.2812 225.258 91.8594C224.336 91.4375 223.273 91.2266 222.07 91.2266H214.477V84.875H222.07C224.383 84.875 226.5 85.2734 228.422 86.0703C230.359 86.8516 232.031 87.9766 233.438 89.4453C234.859 90.8984 235.953 92.625 236.719 94.625C237.5 96.6094 237.891 98.8125 237.891 101.234V102.664C237.891 105.07 237.5 107.273 236.719 109.273C235.953 111.273 234.867 113 233.461 114.453C232.055 115.906 230.391 117.031 228.469 117.828C226.562 118.609 224.469 119 222.188 119ZM219.328 84.875V119H211.102V84.875H219.328ZM254.086 119.469C252.023 119.469 250.18 119.148 248.555 118.508C246.93 117.852 245.555 116.953 244.43 115.812C243.32 114.672 242.469 113.359 241.875 111.875C241.297 110.391 241.008 108.82 241.008 107.164V106.273C241.008 104.414 241.266 102.695 241.781 101.117C242.297 99.5234 243.062 98.1328 244.078 96.9453C245.094 95.7578 246.367 94.8359 247.898 94.1797C249.43 93.5078 251.211 93.1719 253.242 93.1719C255.039 93.1719 256.648 93.4609 258.07 94.0391C259.492 94.6172 260.695 95.4453 261.68 96.5234C262.68 97.6016 263.438 98.9062 263.953 100.438C264.484 101.969 264.75 103.688 264.75 105.594V108.805H244.031V103.859H257.039V103.25C257.055 102.406 256.906 101.688 256.594 101.094C256.297 100.5 255.859 100.047 255.281 99.7344C254.703 99.4219 254 99.2656 253.172 99.2656C252.312 99.2656 251.602 99.4531 251.039 99.8281C250.492 100.203 250.062 100.719 249.75 101.375C249.453 102.016 249.242 102.758 249.117 103.602C248.992 104.445 248.93 105.336 248.93 106.273V107.164C248.93 108.102 249.055 108.953 249.305 109.719C249.57 110.484 249.945 111.141 250.43 111.688C250.93 112.219 251.523 112.633 252.211 112.93C252.914 113.227 253.711 113.375 254.602 113.375C255.68 113.375 256.742 113.172 257.789 112.766C258.836 112.359 259.734 111.688 260.484 110.75L264.07 115.016C263.555 115.75 262.82 116.461 261.867 117.148C260.93 117.836 259.805 118.398 258.492 118.836C257.18 119.258 255.711 119.469 254.086 119.469ZM275.93 98.5156V128.75H268.031V93.6406H275.391L275.93 98.5156ZM291.492 106.016V106.508C291.492 108.352 291.281 110.062 290.859 111.641C290.438 113.219 289.812 114.594 288.984 115.766C288.156 116.938 287.125 117.852 285.891 118.508C284.672 119.148 283.258 119.469 281.648 119.469C280.133 119.469 278.828 119.133 277.734 118.461C276.641 117.789 275.727 116.859 274.992 115.672C274.258 114.484 273.664 113.125 273.211 111.594C272.758 110.062 272.398 108.445 272.133 106.742V106.109C272.398 104.281 272.758 102.586 273.211 101.023C273.664 99.4453 274.258 98.0703 274.992 96.8984C275.727 95.7266 276.633 94.8125 277.711 94.1562C278.805 93.5 280.109 93.1719 281.625 93.1719C283.234 93.1719 284.648 93.4766 285.867 94.0859C287.102 94.6953 288.133 95.5703 288.961 96.7109C289.805 97.8359 290.438 99.1875 290.859 100.766C291.281 102.344 291.492 104.094 291.492 106.016ZM283.594 106.508V106.016C283.594 105.031 283.523 104.133 283.383 103.32C283.242 102.492 283.016 101.773 282.703 101.164C282.406 100.555 282.008 100.086 281.508 99.7578C281.008 99.4297 280.391 99.2656 279.656 99.2656C278.812 99.2656 278.102 99.3984 277.523 99.6641C276.961 99.9141 276.508 100.305 276.164 100.836C275.836 101.352 275.602 102 275.461 102.781C275.336 103.547 275.281 104.445 275.297 105.477V107.398C275.266 108.586 275.383 109.633 275.648 110.539C275.914 111.43 276.375 112.125 277.031 112.625C277.688 113.125 278.578 113.375 279.703 113.375C280.453 113.375 281.078 113.203 281.578 112.859C282.078 112.5 282.477 112.008 282.773 111.383C283.07 110.742 283.281 110.008 283.406 109.18C283.531 108.352 283.594 107.461 283.594 106.508ZM303.352 83V119H295.43V83H303.352ZM307.242 106.578V106.086C307.242 104.227 307.508 102.516 308.039 100.953C308.57 99.375 309.352 98.0078 310.383 96.8516C311.414 95.6953 312.688 94.7969 314.203 94.1562C315.719 93.5 317.469 93.1719 319.453 93.1719C321.453 93.1719 323.211 93.5 324.727 94.1562C326.258 94.7969 327.539 95.6953 328.57 96.8516C329.602 98.0078 330.383 99.375 330.914 100.953C331.445 102.516 331.711 104.227 331.711 106.086V106.578C331.711 108.422 331.445 110.133 330.914 111.711C330.383 113.273 329.602 114.641 328.57 115.812C327.539 116.969 326.266 117.867 324.75 118.508C323.234 119.148 321.484 119.469 319.5 119.469C317.516 119.469 315.758 119.148 314.227 118.508C312.695 117.867 311.414 116.969 310.383 115.812C309.352 114.641 308.57 113.273 308.039 111.711C307.508 110.133 307.242 108.422 307.242 106.578ZM315.141 106.086V106.578C315.141 107.531 315.211 108.422 315.352 109.25C315.492 110.078 315.727 110.805 316.055 111.43C316.383 112.039 316.828 112.516 317.391 112.859C317.953 113.203 318.656 113.375 319.5 113.375C320.328 113.375 321.016 113.203 321.562 112.859C322.125 112.516 322.57 112.039 322.898 111.43C323.227 110.805 323.461 110.078 323.602 109.25C323.742 108.422 323.812 107.531 323.812 106.578V106.086C323.812 105.164 323.742 104.297 323.602 103.484C323.461 102.656 323.227 101.93 322.898 101.305C322.57 100.664 322.125 100.164 321.562 99.8047C321 99.4453 320.297 99.2656 319.453 99.2656C318.625 99.2656 317.93 99.4453 317.367 99.8047C316.82 100.164 316.383 100.664 316.055 101.305C315.727 101.93 315.492 102.656 315.352 103.484C315.211 104.297 315.141 105.164 315.141 106.086ZM342.633 116.023L349.195 93.6406H357.68L347.484 122.773C347.266 123.414 346.977 124.102 346.617 124.836C346.258 125.586 345.766 126.297 345.141 126.969C344.516 127.641 343.711 128.188 342.727 128.609C341.758 129.031 340.555 129.242 339.117 129.242C338.352 129.242 337.789 129.203 337.43 129.125C337.086 129.062 336.555 128.945 335.836 128.773V123.125C336.039 123.125 336.211 123.125 336.352 123.125C336.508 123.125 336.68 123.125 336.867 123.125C337.711 123.125 338.383 123.039 338.883 122.867C339.398 122.695 339.789 122.445 340.055 122.117C340.336 121.789 340.555 121.391 340.711 120.922L342.633 116.023ZM340.969 93.6406L345.961 111.383L346.828 119.75H341.531L332.508 93.6406H340.969ZM367.711 99.0078V119H359.812V93.6406H367.219L367.711 99.0078ZM366.75 105.453L364.945 105.5C364.945 103.719 365.156 102.078 365.578 100.578C366 99.0781 366.625 97.7734 367.453 96.6641C368.281 95.5547 369.297 94.6953 370.5 94.0859C371.719 93.4766 373.125 93.1719 374.719 93.1719C375.828 93.1719 376.836 93.3438 377.742 93.6875C378.648 94.0156 379.43 94.5391 380.086 95.2578C380.742 95.9609 381.242 96.8828 381.586 98.0234C381.945 99.1484 382.125 100.5 382.125 102.078V119H374.227V103.086C374.227 102.008 374.102 101.195 373.852 100.648C373.617 100.102 373.273 99.7344 372.82 99.5469C372.367 99.3594 371.812 99.2656 371.156 99.2656C370.469 99.2656 369.852 99.4219 369.305 99.7344C368.758 100.047 368.289 100.484 367.898 101.047C367.523 101.594 367.234 102.242 367.031 102.992C366.844 103.742 366.75 104.562 366.75 105.453ZM381.234 105.453L379.031 105.5C379.031 103.719 379.227 102.078 379.617 100.578C380.023 99.0781 380.625 97.7734 381.422 96.6641C382.234 95.5547 383.242 94.6953 384.445 94.0859C385.648 93.4766 387.047 93.1719 388.641 93.1719C389.797 93.1719 390.859 93.3438 391.828 93.6875C392.797 94.0312 393.633 94.5859 394.336 95.3516C395.039 96.1172 395.586 97.1328 395.977 98.3984C396.367 99.6484 396.562 101.195 396.562 103.039V119H388.641V103.039C388.641 101.992 388.516 101.203 388.266 100.672C388.031 100.125 387.688 99.7578 387.234 99.5703C386.781 99.3672 386.242 99.2656 385.617 99.2656C384.867 99.2656 384.219 99.4219 383.672 99.7344C383.125 100.047 382.664 100.484 382.289 101.047C381.93 101.594 381.664 102.242 381.492 102.992C381.32 103.742 381.234 104.562 381.234 105.453ZM413.367 119.469C411.305 119.469 409.461 119.148 407.836 118.508C406.211 117.852 404.836 116.953 403.711 115.812C402.602 114.672 401.75 113.359 401.156 111.875C400.578 110.391 400.289 108.82 400.289 107.164V106.273C400.289 104.414 400.547 102.695 401.062 101.117C401.578 99.5234 402.344 98.1328 403.359 96.9453C404.375 95.7578 405.648 94.8359 407.18 94.1797C408.711 93.5078 410.492 93.1719 412.523 93.1719C414.32 93.1719 415.93 93.4609 417.352 94.0391C418.773 94.6172 419.977 95.4453 420.961 96.5234C421.961 97.6016 422.719 98.9062 423.234 100.438C423.766 101.969 424.031 103.688 424.031 105.594V108.805H403.312V103.859H416.32V103.25C416.336 102.406 416.188 101.688 415.875 101.094C415.578 100.5 415.141 100.047 414.562 99.7344C413.984 99.4219 413.281 99.2656 412.453 99.2656C411.594 99.2656 410.883 99.4531 410.32 99.8281C409.773 100.203 409.344 100.719 409.031 101.375C408.734 102.016 408.523 102.758 408.398 103.602C408.273 104.445 408.211 105.336 408.211 106.273V107.164C408.211 108.102 408.336 108.953 408.586 109.719C408.852 110.484 409.227 111.141 409.711 111.688C410.211 112.219 410.805 112.633 411.492 112.93C412.195 113.227 412.992 113.375 413.883 113.375C414.961 113.375 416.023 113.172 417.07 112.766C418.117 112.359 419.016 111.688 419.766 110.75L423.352 115.016C422.836 115.75 422.102 116.461 421.148 117.148C420.211 117.836 419.086 118.398 417.773 118.836C416.461 119.258 414.992 119.469 413.367 119.469ZM435 99.0547V119H427.102V93.6406H434.508L435 99.0547ZM434.062 105.453L432.211 105.5C432.211 103.562 432.445 101.836 432.914 100.32C433.383 98.7891 434.047 97.4922 434.906 96.4297C435.766 95.3672 436.789 94.5625 437.977 94.0156C439.18 93.4531 440.516 93.1719 441.984 93.1719C443.156 93.1719 444.227 93.3438 445.195 93.6875C446.18 94.0312 447.023 94.5859 447.727 95.3516C448.445 96.1172 448.992 97.1328 449.367 98.3984C449.758 99.6484 449.953 101.195 449.953 103.039V119H442.008V103.016C442.008 102 441.867 101.227 441.586 100.695C441.305 100.148 440.898 99.7734 440.367 99.5703C439.836 99.3672 439.188 99.2656 438.422 99.2656C437.609 99.2656 436.922 99.4219 436.359 99.7344C435.797 100.047 435.344 100.484 435 101.047C434.672 101.594 434.43 102.242 434.273 102.992C434.133 103.742 434.062 104.562 434.062 105.453ZM467.695 93.6406V99.125H452.414V93.6406H467.695ZM455.625 87.3359H463.523V110.727C463.523 111.398 463.602 111.922 463.758 112.297C463.914 112.656 464.18 112.914 464.555 113.07C464.945 113.211 465.461 113.281 466.102 113.281C466.555 113.281 466.93 113.273 467.227 113.258C467.523 113.227 467.805 113.188 468.07 113.141V118.789C467.398 119.008 466.695 119.172 465.961 119.281C465.227 119.406 464.445 119.469 463.617 119.469C461.93 119.469 460.484 119.203 459.281 118.672C458.094 118.141 457.188 117.305 456.562 116.164C455.938 115.023 455.625 113.539 455.625 111.711V87.3359Z" fill="black"/>
<path d="M1134 0H1348C1356.28 0 1363 6.71573 1363 15V148C1363 156.284 1356.28 163 1348 163H1134V0Z" fill="#CFAD5C"/>
<path d="M1212.5 117.5L1212.5 45.5L1284.5 45.5L1284.5 117.5L1212.5 117.5Z" fill="white" fill-opacity="0.01"/>
<path d="M1221.5 81.5125L1221.5 108.5L1275.5 108.5L1275.5 81.5" stroke="white" stroke-width="7.24" stroke-linecap="round" stroke-linejoin="round"/>
<path d="M1262 68L1248.5 54.5L1235 68" stroke="white" stroke-width="7.24" stroke-linecap="round" stroke-linejoin="round"/>
<path d="M1248.49 93.5L1248.49 54.5" stroke="white" stroke-width="7.24" stroke-linecap="round" stroke-linejoin="round"/>
</svg>
