<svg width="1363" height="163" viewBox="0 0 1363 163" fill="none" xmlns="http://www.w3.org/2000/svg">
<path d="M0 15C0 6.71573 6.71573 0 15 0H37V163H15C6.71573 163 0 156.284 0 148V15Z" fill="#424242"/>
<rect width="1097" height="163" transform="translate(37)" fill="#F0F0F0"/>
<path d="M105.973 58.2578V61H96.8906V58.2578H105.973ZM98.0391 43.9375V61H94.5234V43.9375H98.0391ZM104.789 50.8867V53.5586H96.8906V50.8867H104.789ZM105.961 43.9375V46.6914H96.8906V43.9375H105.961ZM111.82 58.5391L114.633 48.3203H118.16L113.883 61H111.75L111.82 58.5391ZM109.887 48.3203L112.711 58.5508L112.77 61H110.625L106.348 48.3203H109.887ZM125.344 61.2344C124.359 61.2344 123.477 61.0781 122.695 60.7656C121.914 60.4453 121.25 60.0039 120.703 59.4414C120.164 58.8789 119.75 58.2266 119.461 57.4844C119.172 56.7344 119.027 55.9375 119.027 55.0938V54.625C119.027 53.6641 119.164 52.7852 119.438 51.9883C119.711 51.1914 120.102 50.5 120.609 49.9141C121.125 49.3281 121.75 48.8789 122.484 48.5664C123.219 48.2461 124.047 48.0859 124.969 48.0859C125.867 48.0859 126.664 48.2344 127.359 48.5312C128.055 48.8281 128.637 49.25 129.105 49.7969C129.582 50.3438 129.941 51 130.184 51.7656C130.426 52.5234 130.547 53.3672 130.547 54.2969V55.7031H120.469V53.4531H127.23V53.1953C127.23 52.7266 127.145 52.3086 126.973 51.9414C126.809 51.5664 126.559 51.2695 126.223 51.0508C125.887 50.832 125.457 50.7227 124.934 50.7227C124.488 50.7227 124.105 50.8203 123.785 51.0156C123.465 51.2109 123.203 51.4844 123 51.8359C122.805 52.1875 122.656 52.6016 122.555 53.0781C122.461 53.5469 122.414 54.0625 122.414 54.625V55.0938C122.414 55.6016 122.484 56.0703 122.625 56.5C122.773 56.9297 122.98 57.3008 123.246 57.6133C123.52 57.9258 123.848 58.168 124.23 58.3398C124.621 58.5117 125.062 58.5977 125.555 58.5977C126.164 58.5977 126.73 58.4805 127.254 58.2461C127.785 58.0039 128.242 57.6406 128.625 57.1562L130.266 58.9375C130 59.3203 129.637 59.6875 129.176 60.0391C128.723 60.3906 128.176 60.6797 127.535 60.9062C126.895 61.125 126.164 61.2344 125.344 61.2344ZM135.844 51.0859V61H132.469V48.3203H135.645L135.844 51.0859ZM139.664 48.2383L139.605 51.3672C139.441 51.3438 139.242 51.3242 139.008 51.3086C138.781 51.2852 138.574 51.2734 138.387 51.2734C137.91 51.2734 137.496 51.3359 137.145 51.4609C136.801 51.5781 136.512 51.7539 136.277 51.9883C136.051 52.2227 135.879 52.5078 135.762 52.8438C135.652 53.1797 135.59 53.5625 135.574 53.9922L134.895 53.7812C134.895 52.9609 134.977 52.207 135.141 51.5195C135.305 50.8242 135.543 50.2188 135.855 49.7031C136.176 49.1875 136.566 48.7891 137.027 48.5078C137.488 48.2266 138.016 48.0859 138.609 48.0859C138.797 48.0859 138.988 48.1016 139.184 48.1328C139.379 48.1562 139.539 48.1914 139.664 48.2383ZM154.383 46.8555L149.742 61H146.004L152.344 43.9375H154.723L154.383 46.8555ZM158.238 61L153.586 46.8555L153.211 43.9375H155.613L161.988 61H158.238ZM158.027 54.6484V57.4023H149.016V54.6484H158.027ZM167.66 61H164.262V47.1953C164.262 46.2344 164.449 45.4258 164.824 44.7695C165.207 44.1055 165.742 43.6055 166.43 43.2695C167.125 42.9258 167.949 42.7539 168.902 42.7539C169.215 42.7539 169.516 42.7773 169.805 42.8242C170.094 42.8633 170.375 42.9141 170.648 42.9766L170.613 45.5195C170.465 45.4805 170.309 45.4531 170.145 45.4375C169.98 45.4219 169.789 45.4141 169.57 45.4141C169.164 45.4141 168.816 45.4844 168.527 45.625C168.246 45.7578 168.031 45.957 167.883 46.2227C167.734 46.4883 167.66 46.8125 167.66 47.1953V61ZM170.191 48.3203V50.7109H162.375V48.3203H170.191ZM178.172 48.3203V50.7109H170.789V48.3203H178.172ZM172.617 45.1914H175.992V57.1797C175.992 57.5469 176.039 57.8281 176.133 58.0234C176.234 58.2188 176.383 58.3555 176.578 58.4336C176.773 58.5039 177.02 58.5391 177.316 58.5391C177.527 58.5391 177.715 58.5312 177.879 58.5156C178.051 58.4922 178.195 58.4688 178.312 58.4453L178.324 60.9297C178.035 61.0234 177.723 61.0977 177.387 61.1523C177.051 61.207 176.68 61.2344 176.273 61.2344C175.531 61.2344 174.883 61.1133 174.328 60.8711C173.781 60.6211 173.359 60.2227 173.062 59.6758C172.766 59.1289 172.617 58.4102 172.617 57.5195V45.1914ZM185.93 61.2344C184.945 61.2344 184.062 61.0781 183.281 60.7656C182.5 60.4453 181.836 60.0039 181.289 59.4414C180.75 58.8789 180.336 58.2266 180.047 57.4844C179.758 56.7344 179.613 55.9375 179.613 55.0938V54.625C179.613 53.6641 179.75 52.7852 180.023 51.9883C180.297 51.1914 180.688 50.5 181.195 49.9141C181.711 49.3281 182.336 48.8789 183.07 48.5664C183.805 48.2461 184.633 48.0859 185.555 48.0859C186.453 48.0859 187.25 48.2344 187.945 48.5312C188.641 48.8281 189.223 49.25 189.691 49.7969C190.168 50.3438 190.527 51 190.77 51.7656C191.012 52.5234 191.133 53.3672 191.133 54.2969V55.7031H181.055V53.4531H187.816V53.1953C187.816 52.7266 187.73 52.3086 187.559 51.9414C187.395 51.5664 187.145 51.2695 186.809 51.0508C186.473 50.832 186.043 50.7227 185.52 50.7227C185.074 50.7227 184.691 50.8203 184.371 51.0156C184.051 51.2109 183.789 51.4844 183.586 51.8359C183.391 52.1875 183.242 52.6016 183.141 53.0781C183.047 53.5469 183 54.0625 183 54.625V55.0938C183 55.6016 183.07 56.0703 183.211 56.5C183.359 56.9297 183.566 57.3008 183.832 57.6133C184.105 57.9258 184.434 58.168 184.816 58.3398C185.207 58.5117 185.648 58.5977 186.141 58.5977C186.75 58.5977 187.316 58.4805 187.84 58.2461C188.371 58.0039 188.828 57.6406 189.211 57.1562L190.852 58.9375C190.586 59.3203 190.223 59.6875 189.762 60.0391C189.309 60.3906 188.762 60.6797 188.121 60.9062C187.48 61.125 186.75 61.2344 185.93 61.2344ZM196.43 51.0859V61H193.055V48.3203H196.23L196.43 51.0859ZM200.25 48.2383L200.191 51.3672C200.027 51.3438 199.828 51.3242 199.594 51.3086C199.367 51.2852 199.16 51.2734 198.973 51.2734C198.496 51.2734 198.082 51.3359 197.73 51.4609C197.387 51.5781 197.098 51.7539 196.863 51.9883C196.637 52.2227 196.465 52.5078 196.348 52.8438C196.238 53.1797 196.176 53.5625 196.16 53.9922L195.48 53.7812C195.48 52.9609 195.562 52.207 195.727 51.5195C195.891 50.8242 196.129 50.2188 196.441 49.7031C196.762 49.1875 197.152 48.7891 197.613 48.5078C198.074 48.2266 198.602 48.0859 199.195 48.0859C199.383 48.0859 199.574 48.1016 199.77 48.1328C199.965 48.1562 200.125 48.1914 200.25 48.2383ZM219.48 58.2578V61H210.398V58.2578H219.48ZM211.547 43.9375V61H208.031V43.9375H211.547ZM218.297 50.8867V53.5586H210.398V50.8867H218.297ZM219.469 43.9375V46.6914H210.398V43.9375H219.469ZM224.883 43V61H221.496V43H224.883ZM233.508 61.2344C232.523 61.2344 231.641 61.0781 230.859 60.7656C230.078 60.4453 229.414 60.0039 228.867 59.4414C228.328 58.8789 227.914 58.2266 227.625 57.4844C227.336 56.7344 227.191 55.9375 227.191 55.0938V54.625C227.191 53.6641 227.328 52.7852 227.602 51.9883C227.875 51.1914 228.266 50.5 228.773 49.9141C229.289 49.3281 229.914 48.8789 230.648 48.5664C231.383 48.2461 232.211 48.0859 233.133 48.0859C234.031 48.0859 234.828 48.2344 235.523 48.5312C236.219 48.8281 236.801 49.25 237.27 49.7969C237.746 50.3438 238.105 51 238.348 51.7656C238.59 52.5234 238.711 53.3672 238.711 54.2969V55.7031H228.633V53.4531H235.395V53.1953C235.395 52.7266 235.309 52.3086 235.137 51.9414C234.973 51.5664 234.723 51.2695 234.387 51.0508C234.051 50.832 233.621 50.7227 233.098 50.7227C232.652 50.7227 232.27 50.8203 231.949 51.0156C231.629 51.2109 231.367 51.4844 231.164 51.8359C230.969 52.1875 230.82 52.6016 230.719 53.0781C230.625 53.5469 230.578 54.0625 230.578 54.625V55.0938C230.578 55.6016 230.648 56.0703 230.789 56.5C230.938 56.9297 231.145 57.3008 231.41 57.6133C231.684 57.9258 232.012 58.168 232.395 58.3398C232.785 58.5117 233.227 58.5977 233.719 58.5977C234.328 58.5977 234.895 58.4805 235.418 58.2461C235.949 58.0039 236.406 57.6406 236.789 57.1562L238.43 58.9375C238.164 59.3203 237.801 59.6875 237.34 60.0391C236.887 60.3906 236.34 60.6797 235.699 60.9062C235.059 61.125 234.328 61.2344 233.508 61.2344ZM248.66 48.3203H251.719V60.5781C251.719 61.7344 251.461 62.7148 250.945 63.5195C250.438 64.332 249.727 64.9453 248.812 65.3594C247.898 65.7812 246.836 65.9922 245.625 65.9922C245.094 65.9922 244.531 65.9219 243.938 65.7812C243.352 65.6406 242.789 65.4219 242.25 65.125C241.719 64.8281 241.273 64.4531 240.914 64L242.402 62.0078C242.793 62.4609 243.246 62.8125 243.762 63.0625C244.277 63.3203 244.848 63.4492 245.473 63.4492C246.082 63.4492 246.598 63.3359 247.02 63.1094C247.441 62.8906 247.766 62.5664 247.992 62.1367C248.219 61.7148 248.332 61.2031 248.332 60.6016V51.25L248.66 48.3203ZM240.129 54.8125V54.5664C240.129 53.5977 240.246 52.7188 240.48 51.9297C240.723 51.1328 241.062 50.4492 241.5 49.8789C241.945 49.3086 242.484 48.8672 243.117 48.5547C243.75 48.2422 244.465 48.0859 245.262 48.0859C246.105 48.0859 246.812 48.2422 247.383 48.5547C247.953 48.8672 248.422 49.3125 248.789 49.8906C249.156 50.4609 249.441 51.1367 249.645 51.918C249.855 52.6914 250.02 53.5391 250.137 54.4609V55C250.02 55.8828 249.844 56.7031 249.609 57.4609C249.375 58.2188 249.066 58.8828 248.684 59.4531C248.301 60.0156 247.824 60.4531 247.254 60.7656C246.691 61.0781 246.02 61.2344 245.238 61.2344C244.457 61.2344 243.75 61.0742 243.117 60.7539C242.492 60.4336 241.957 59.9844 241.512 59.4062C241.066 58.8281 240.723 58.1484 240.48 57.3672C240.246 56.5859 240.129 55.7344 240.129 54.8125ZM243.504 54.5664V54.8125C243.504 55.3359 243.555 55.8242 243.656 56.2773C243.758 56.7305 243.914 57.1328 244.125 57.4844C244.344 57.8281 244.613 58.0977 244.934 58.293C245.262 58.4805 245.648 58.5742 246.094 58.5742C246.711 58.5742 247.215 58.4453 247.605 58.1875C247.996 57.9219 248.289 57.5586 248.484 57.0977C248.68 56.6367 248.793 56.1055 248.824 55.5039V53.9688C248.809 53.4766 248.742 53.0352 248.625 52.6445C248.508 52.2461 248.344 51.9062 248.133 51.625C247.922 51.3438 247.648 51.125 247.312 50.9688C246.977 50.8125 246.578 50.7344 246.117 50.7344C245.672 50.7344 245.285 50.8359 244.957 51.0391C244.637 51.2344 244.367 51.5039 244.148 51.8477C243.938 52.1914 243.777 52.5977 243.668 53.0664C243.559 53.5273 243.504 54.0273 243.504 54.5664ZM261.188 58.1406V52.4922C261.188 52.0859 261.121 51.7383 260.988 51.4492C260.855 51.1523 260.648 50.9219 260.367 50.7578C260.094 50.5938 259.738 50.5117 259.301 50.5117C258.926 50.5117 258.602 50.5781 258.328 50.7109C258.055 50.8359 257.844 51.0195 257.695 51.2617C257.547 51.4961 257.473 51.7734 257.473 52.0938H254.098C254.098 51.5547 254.223 51.043 254.473 50.5586C254.723 50.0742 255.086 49.6484 255.562 49.2812C256.039 48.9062 256.605 48.6133 257.262 48.4023C257.926 48.1914 258.668 48.0859 259.488 48.0859C260.473 48.0859 261.348 48.25 262.113 48.5781C262.879 48.9062 263.48 49.3984 263.918 50.0547C264.363 50.7109 264.586 51.5312 264.586 52.5156V57.9414C264.586 58.6367 264.629 59.207 264.715 59.6523C264.801 60.0898 264.926 60.4727 265.09 60.8008V61H261.68C261.516 60.6562 261.391 60.2266 261.305 59.7109C261.227 59.1875 261.188 58.6641 261.188 58.1406ZM261.633 53.2773L261.656 55.1875H259.77C259.324 55.1875 258.938 55.2383 258.609 55.3398C258.281 55.4414 258.012 55.5859 257.801 55.7734C257.59 55.9531 257.434 56.1641 257.332 56.4062C257.238 56.6484 257.191 56.9141 257.191 57.2031C257.191 57.4922 257.258 57.7539 257.391 57.9883C257.523 58.2148 257.715 58.3945 257.965 58.5273C258.215 58.6523 258.508 58.7148 258.844 58.7148C259.352 58.7148 259.793 58.6133 260.168 58.4102C260.543 58.207 260.832 57.957 261.035 57.6602C261.246 57.3633 261.355 57.082 261.363 56.8164L262.254 58.2461C262.129 58.5664 261.957 58.8984 261.738 59.2422C261.527 59.5859 261.258 59.9102 260.93 60.2148C260.602 60.5117 260.207 60.7578 259.746 60.9531C259.285 61.1406 258.738 61.2344 258.105 61.2344C257.301 61.2344 256.57 61.0742 255.914 60.7539C255.266 60.4258 254.75 59.9766 254.367 59.4062C253.992 58.8281 253.805 58.1719 253.805 57.4375C253.805 56.7734 253.93 56.1836 254.18 55.668C254.43 55.1523 254.797 54.7188 255.281 54.3672C255.773 54.0078 256.387 53.7383 257.121 53.5586C257.855 53.3711 258.707 53.2773 259.676 53.2773H261.633ZM270.492 51.0273V61H267.117V48.3203H270.281L270.492 51.0273ZM270 54.2148H269.086C269.086 53.2773 269.207 52.4336 269.449 51.6836C269.691 50.9258 270.031 50.2812 270.469 49.75C270.906 49.2109 271.426 48.8008 272.027 48.5195C272.637 48.2305 273.316 48.0859 274.066 48.0859C274.66 48.0859 275.203 48.1719 275.695 48.3438C276.188 48.5156 276.609 48.7891 276.961 49.1641C277.32 49.5391 277.594 50.0352 277.781 50.6523C277.977 51.2695 278.074 52.0234 278.074 52.9141V61H274.676V52.9023C274.676 52.3398 274.598 51.9023 274.441 51.5898C274.285 51.2773 274.055 51.0586 273.75 50.9336C273.453 50.8008 273.086 50.7344 272.648 50.7344C272.195 50.7344 271.801 50.8242 271.465 51.0039C271.137 51.1836 270.863 51.4336 270.645 51.7539C270.434 52.0664 270.273 52.4336 270.164 52.8555C270.055 53.2773 270 53.7305 270 54.2148ZM285.879 58.5977C286.293 58.5977 286.66 58.5195 286.98 58.3633C287.301 58.1992 287.551 57.9727 287.73 57.6836C287.918 57.3867 288.016 57.0391 288.023 56.6406H291.199C291.191 57.5312 290.953 58.3242 290.484 59.0195C290.016 59.707 289.387 60.25 288.598 60.6484C287.809 61.0391 286.926 61.2344 285.949 61.2344C284.965 61.2344 284.105 61.0703 283.371 60.7422C282.645 60.4141 282.039 59.9609 281.555 59.3828C281.07 58.7969 280.707 58.1172 280.465 57.3438C280.223 56.5625 280.102 55.7266 280.102 54.8359V54.4961C280.102 53.5977 280.223 52.7617 280.465 51.9883C280.707 51.207 281.07 50.5273 281.555 49.9492C282.039 49.3633 282.645 48.9062 283.371 48.5781C284.098 48.25 284.949 48.0859 285.926 48.0859C286.965 48.0859 287.875 48.2852 288.656 48.6836C289.445 49.082 290.062 49.6523 290.508 50.3945C290.961 51.1289 291.191 52 291.199 53.0078H288.023C288.016 52.5859 287.926 52.2031 287.754 51.8594C287.59 51.5156 287.348 51.2422 287.027 51.0391C286.715 50.8281 286.328 50.7227 285.867 50.7227C285.375 50.7227 284.973 50.8281 284.66 51.0391C284.348 51.2422 284.105 51.5234 283.934 51.8828C283.762 52.2344 283.641 52.6367 283.57 53.0898C283.508 53.5352 283.477 54.0039 283.477 54.4961V54.8359C283.477 55.3281 283.508 55.8008 283.57 56.2539C283.633 56.707 283.75 57.1094 283.922 57.4609C284.102 57.8125 284.348 58.0898 284.66 58.293C284.973 58.4961 285.379 58.5977 285.879 58.5977ZM298.992 61.2344C298.008 61.2344 297.125 61.0781 296.344 60.7656C295.562 60.4453 294.898 60.0039 294.352 59.4414C293.812 58.8789 293.398 58.2266 293.109 57.4844C292.82 56.7344 292.676 55.9375 292.676 55.0938V54.625C292.676 53.6641 292.812 52.7852 293.086 51.9883C293.359 51.1914 293.75 50.5 294.258 49.9141C294.773 49.3281 295.398 48.8789 296.133 48.5664C296.867 48.2461 297.695 48.0859 298.617 48.0859C299.516 48.0859 300.312 48.2344 301.008 48.5312C301.703 48.8281 302.285 49.25 302.754 49.7969C303.23 50.3438 303.59 51 303.832 51.7656C304.074 52.5234 304.195 53.3672 304.195 54.2969V55.7031H294.117V53.4531H300.879V53.1953C300.879 52.7266 300.793 52.3086 300.621 51.9414C300.457 51.5664 300.207 51.2695 299.871 51.0508C299.535 50.832 299.105 50.7227 298.582 50.7227C298.137 50.7227 297.754 50.8203 297.434 51.0156C297.113 51.2109 296.852 51.4844 296.648 51.8359C296.453 52.1875 296.305 52.6016 296.203 53.0781C296.109 53.5469 296.062 54.0625 296.062 54.625V55.0938C296.062 55.6016 296.133 56.0703 296.273 56.5C296.422 56.9297 296.629 57.3008 296.895 57.6133C297.168 57.9258 297.496 58.168 297.879 58.3398C298.27 58.5117 298.711 58.5977 299.203 58.5977C299.812 58.5977 300.379 58.4805 300.902 58.2461C301.434 58.0039 301.891 57.6406 302.273 57.1562L303.914 58.9375C303.648 59.3203 303.285 59.6875 302.824 60.0391C302.371 60.3906 301.824 60.6797 301.184 60.9062C300.543 61.125 299.812 61.2344 298.992 61.2344Z" fill="#888888"/>
<path d="M114.117 84.875H122.344V107.164C122.344 109.82 121.789 112.07 120.68 113.914C119.57 115.742 118.016 117.125 116.016 118.062C114.016 119 111.664 119.469 108.961 119.469C106.289 119.469 103.938 119 101.906 118.062C99.8906 117.125 98.3125 115.742 97.1719 113.914C96.0469 112.07 95.4844 109.82 95.4844 107.164V84.875H103.734V107.164C103.734 108.57 103.938 109.719 104.344 110.609C104.75 111.484 105.344 112.125 106.125 112.531C106.906 112.938 107.852 113.141 108.961 113.141C110.086 113.141 111.031 112.938 111.797 112.531C112.562 112.125 113.141 111.484 113.531 110.609C113.922 109.719 114.117 108.57 114.117 107.164V84.875ZM134.906 99.0547V119H127.008V93.6406H134.414L134.906 99.0547ZM133.969 105.453L132.117 105.5C132.117 103.562 132.352 101.836 132.82 100.32C133.289 98.7891 133.953 97.4922 134.812 96.4297C135.672 95.3672 136.695 94.5625 137.883 94.0156C139.086 93.4531 140.422 93.1719 141.891 93.1719C143.062 93.1719 144.133 93.3438 145.102 93.6875C146.086 94.0312 146.93 94.5859 147.633 95.3516C148.352 96.1172 148.898 97.1328 149.273 98.3984C149.664 99.6484 149.859 101.195 149.859 103.039V119H141.914V103.016C141.914 102 141.773 101.227 141.492 100.695C141.211 100.148 140.805 99.7734 140.273 99.5703C139.742 99.3672 139.094 99.2656 138.328 99.2656C137.516 99.2656 136.828 99.4219 136.266 99.7344C135.703 100.047 135.25 100.484 134.906 101.047C134.578 101.594 134.336 102.242 134.18 102.992C134.039 103.742 133.969 104.562 133.969 105.453ZM162.586 93.6406V119H154.664V93.6406H162.586ZM154.195 87.1016C154.195 85.9766 154.602 85.0547 155.414 84.3359C156.227 83.6172 157.281 83.2578 158.578 83.2578C159.875 83.2578 160.93 83.6172 161.742 84.3359C162.555 85.0547 162.961 85.9766 162.961 87.1016C162.961 88.2266 162.555 89.1484 161.742 89.8672C160.93 90.5859 159.875 90.9453 158.578 90.9453C157.281 90.9453 156.227 90.5859 155.414 89.8672C154.602 89.1484 154.195 88.2266 154.195 87.1016ZM180.82 93.6406V99.125H165.539V93.6406H180.82ZM168.75 87.3359H176.648V110.727C176.648 111.398 176.727 111.922 176.883 112.297C177.039 112.656 177.305 112.914 177.68 113.07C178.07 113.211 178.586 113.281 179.227 113.281C179.68 113.281 180.055 113.273 180.352 113.258C180.648 113.227 180.93 113.188 181.195 113.141V118.789C180.523 119.008 179.82 119.172 179.086 119.281C178.352 119.406 177.57 119.469 176.742 119.469C175.055 119.469 173.609 119.203 172.406 118.672C171.219 118.141 170.312 117.305 169.688 116.164C169.062 115.023 168.75 113.539 168.75 111.711V87.3359ZM211.406 84.875V119H203.18V84.875H211.406ZM221.672 84.875V91.2266H193.148V84.875H221.672ZM234.961 119.469C232.898 119.469 231.055 119.148 229.43 118.508C227.805 117.852 226.43 116.953 225.305 115.812C224.195 114.672 223.344 113.359 222.75 111.875C222.172 110.391 221.883 108.82 221.883 107.164V106.273C221.883 104.414 222.141 102.695 222.656 101.117C223.172 99.5234 223.938 98.1328 224.953 96.9453C225.969 95.7578 227.242 94.8359 228.773 94.1797C230.305 93.5078 232.086 93.1719 234.117 93.1719C235.914 93.1719 237.523 93.4609 238.945 94.0391C240.367 94.6172 241.57 95.4453 242.555 96.5234C243.555 97.6016 244.312 98.9062 244.828 100.438C245.359 101.969 245.625 103.688 245.625 105.594V108.805H224.906V103.859H237.914V103.25C237.93 102.406 237.781 101.688 237.469 101.094C237.172 100.5 236.734 100.047 236.156 99.7344C235.578 99.4219 234.875 99.2656 234.047 99.2656C233.188 99.2656 232.477 99.4531 231.914 99.8281C231.367 100.203 230.938 100.719 230.625 101.375C230.328 102.016 230.117 102.758 229.992 103.602C229.867 104.445 229.805 105.336 229.805 106.273V107.164C229.805 108.102 229.93 108.953 230.18 109.719C230.445 110.484 230.82 111.141 231.305 111.688C231.805 112.219 232.398 112.633 233.086 112.93C233.789 113.227 234.586 113.375 235.477 113.375C236.555 113.375 237.617 113.172 238.664 112.766C239.711 112.359 240.609 111.688 241.359 110.75L244.945 115.016C244.43 115.75 243.695 116.461 242.742 117.148C241.805 117.836 240.68 118.398 239.367 118.836C238.055 119.258 236.586 119.469 234.961 119.469ZM262.125 111.875C262.125 111.438 261.977 111.062 261.68 110.75C261.398 110.422 260.898 110.125 260.18 109.859C259.461 109.578 258.453 109.297 257.156 109.016C255.922 108.75 254.758 108.398 253.664 107.961C252.586 107.523 251.641 106.992 250.828 106.367C250.016 105.742 249.375 105 248.906 104.141C248.453 103.281 248.227 102.297 248.227 101.188C248.227 100.109 248.453 99.0938 248.906 98.1406C249.375 97.1719 250.055 96.3203 250.945 95.5859C251.852 94.8359 252.953 94.25 254.25 93.8281C255.547 93.3906 257.023 93.1719 258.68 93.1719C260.961 93.1719 262.93 93.5234 264.586 94.2266C266.242 94.9141 267.516 95.8828 268.406 97.1328C269.312 98.3672 269.766 99.7969 269.766 101.422H261.867C261.867 100.781 261.758 100.234 261.539 99.7812C261.336 99.3281 261 98.9844 260.531 98.75C260.062 98.5 259.438 98.375 258.656 98.375C258.109 98.375 257.609 98.4766 257.156 98.6797C256.719 98.8828 256.367 99.1641 256.102 99.5234C255.836 99.8828 255.703 100.305 255.703 100.789C255.703 101.133 255.781 101.445 255.938 101.727C256.109 101.992 256.367 102.242 256.711 102.477C257.055 102.695 257.492 102.898 258.023 103.086C258.555 103.258 259.195 103.414 259.945 103.555C261.648 103.867 263.242 104.312 264.727 104.891C266.211 105.469 267.414 106.289 268.336 107.352C269.273 108.414 269.742 109.844 269.742 111.641C269.742 112.766 269.484 113.805 268.969 114.758C268.453 115.695 267.711 116.523 266.742 117.242C265.773 117.945 264.609 118.492 263.25 118.883C261.891 119.273 260.359 119.469 258.656 119.469C256.234 119.469 254.188 119.039 252.516 118.18C250.844 117.305 249.578 116.211 248.719 114.898C247.875 113.57 247.453 112.227 247.453 110.867H254.812C254.844 111.648 255.031 112.289 255.375 112.789C255.734 113.289 256.211 113.656 256.805 113.891C257.398 114.125 258.086 114.242 258.867 114.242C259.586 114.242 260.18 114.141 260.648 113.938C261.133 113.734 261.5 113.461 261.75 113.117C262 112.758 262.125 112.344 262.125 111.875ZM286.805 93.6406V99.125H271.523V93.6406H286.805ZM274.734 87.3359H282.633V110.727C282.633 111.398 282.711 111.922 282.867 112.297C283.023 112.656 283.289 112.914 283.664 113.07C284.055 113.211 284.57 113.281 285.211 113.281C285.664 113.281 286.039 113.273 286.336 113.258C286.633 113.227 286.914 113.188 287.18 113.141V118.789C286.508 119.008 285.805 119.172 285.07 119.281C284.336 119.406 283.555 119.469 282.727 119.469C281.039 119.469 279.594 119.203 278.391 118.672C277.203 118.141 276.297 117.305 275.672 116.164C275.047 115.023 274.734 113.539 274.734 111.711V87.3359ZM298.289 93.6406V119H290.367V93.6406H298.289ZM289.898 87.1016C289.898 85.9766 290.305 85.0547 291.117 84.3359C291.93 83.6172 292.984 83.2578 294.281 83.2578C295.578 83.2578 296.633 83.6172 297.445 84.3359C298.258 85.0547 298.664 85.9766 298.664 87.1016C298.664 88.2266 298.258 89.1484 297.445 89.8672C296.633 90.5859 295.578 90.9453 294.281 90.9453C292.984 90.9453 291.93 90.5859 291.117 89.8672C290.305 89.1484 289.898 88.2266 289.898 87.1016ZM310.922 99.0547V119H303.023V93.6406H310.43L310.922 99.0547ZM309.984 105.453L308.133 105.5C308.133 103.562 308.367 101.836 308.836 100.32C309.305 98.7891 309.969 97.4922 310.828 96.4297C311.688 95.3672 312.711 94.5625 313.898 94.0156C315.102 93.4531 316.438 93.1719 317.906 93.1719C319.078 93.1719 320.148 93.3438 321.117 93.6875C322.102 94.0312 322.945 94.5859 323.648 95.3516C324.367 96.1172 324.914 97.1328 325.289 98.3984C325.68 99.6484 325.875 101.195 325.875 103.039V119H317.93V103.016C317.93 102 317.789 101.227 317.508 100.695C317.227 100.148 316.82 99.7734 316.289 99.5703C315.758 99.3672 315.109 99.2656 314.344 99.2656C313.531 99.2656 312.844 99.4219 312.281 99.7344C311.719 100.047 311.266 100.484 310.922 101.047C310.594 101.594 310.352 102.242 310.195 102.992C310.055 103.742 309.984 104.562 309.984 105.453ZM346.195 93.6406H353.367V118.016C353.367 120.359 352.828 122.344 351.75 123.969C350.672 125.609 349.164 126.852 347.227 127.695C345.305 128.555 343.055 128.984 340.477 128.984C339.336 128.984 338.172 128.836 336.984 128.539C335.797 128.258 334.688 127.836 333.656 127.273C332.625 126.711 331.758 126.016 331.055 125.188L334.359 120.547C335 121.266 335.805 121.875 336.773 122.375C337.742 122.891 338.883 123.148 340.195 123.148C341.336 123.148 342.289 122.945 343.055 122.539C343.836 122.133 344.43 121.539 344.836 120.758C345.242 119.992 345.445 119.062 345.445 117.969V99.6406L346.195 93.6406ZM329.344 106.625V106.133C329.344 104.211 329.578 102.461 330.047 100.883C330.531 99.2891 331.219 97.9219 332.109 96.7812C333.016 95.625 334.109 94.7344 335.391 94.1094C336.672 93.4844 338.117 93.1719 339.727 93.1719C341.461 93.1719 342.883 93.5078 343.992 94.1797C345.117 94.8359 346.016 95.7578 346.688 96.9453C347.375 98.1328 347.906 99.5234 348.281 101.117C348.672 102.695 349 104.398 349.266 106.227V106.812C349 108.531 348.633 110.156 348.164 111.688C347.711 113.203 347.117 114.547 346.383 115.719C345.648 116.891 344.727 117.812 343.617 118.484C342.523 119.141 341.211 119.469 339.68 119.469C338.086 119.469 336.648 119.148 335.367 118.508C334.102 117.867 333.016 116.969 332.109 115.812C331.219 114.656 330.531 113.297 330.047 111.734C329.578 110.172 329.344 108.469 329.344 106.625ZM337.242 106.133V106.625C337.242 107.578 337.328 108.461 337.5 109.273C337.688 110.086 337.969 110.805 338.344 111.43C338.719 112.039 339.18 112.516 339.727 112.859C340.289 113.203 340.945 113.375 341.695 113.375C342.836 113.375 343.758 113.133 344.461 112.648C345.164 112.164 345.672 111.477 345.984 110.586C346.297 109.695 346.43 108.648 346.383 107.445V105.594C346.414 104.562 346.344 103.656 346.172 102.875C346 102.078 345.727 101.414 345.352 100.883C344.992 100.352 344.508 99.9531 343.898 99.6875C343.305 99.4062 342.586 99.2656 341.742 99.2656C341.008 99.2656 340.359 99.4375 339.797 99.7812C339.234 100.125 338.766 100.609 338.391 101.234C338.016 101.844 337.727 102.57 337.523 103.414C337.336 104.242 337.242 105.148 337.242 106.133Z" fill="black"/>
<path d="M1134 0H1348C1356.28 0 1363 6.71573 1363 15V148C1363 156.284 1356.28 163 1348 163H1134V0Z" fill="#CFAD5C"/>
<path d="M1210.62 43.625H1286.38V119.375H1210.62V43.625Z" fill="white" fill-opacity="0.01"/>
<path d="M1276.91 72.0312V105.172C1276.91 107.787 1274.79 109.906 1272.17 109.906H1224.83C1222.21 109.906 1220.09 107.787 1220.09 105.172V57.8281C1220.09 55.2134 1222.21 53.0938 1224.83 53.0938H1261.12" stroke="white" stroke-width="7.24" stroke-linecap="round" stroke-linejoin="round"/>
<path d="M1232.72 75.1875L1248.5 87.8125L1276.91 53.0938" stroke="white" stroke-width="7.24" stroke-linecap="round" stroke-linejoin="round"/>
</svg>
