<svg width="1363" height="163" viewBox="0 0 1363 163" fill="none" xmlns="http://www.w3.org/2000/svg">
<path d="M0 15C0 6.71573 6.71573 0 15 0H37V163H15C6.71573 163 0 156.284 0 148V15Z" fill="#424242"/>
<rect width="1097" height="163" transform="translate(37)" fill="#F0F0F0"/>
<path d="M105.973 58.2578V61H96.8906V58.2578H105.973ZM98.0391 43.9375V61H94.5234V43.9375H98.0391ZM104.789 50.8867V53.5586H96.8906V50.8867H104.789ZM105.961 43.9375V46.6914H96.8906V43.9375H105.961ZM111.82 58.5391L114.633 48.3203H118.16L113.883 61H111.75L111.82 58.5391ZM109.887 48.3203L112.711 58.5508L112.77 61H110.625L106.348 48.3203H109.887ZM125.344 61.2344C124.359 61.2344 123.477 61.0781 122.695 60.7656C121.914 60.4453 121.25 60.0039 120.703 59.4414C120.164 58.8789 119.75 58.2266 119.461 57.4844C119.172 56.7344 119.027 55.9375 119.027 55.0938V54.625C119.027 53.6641 119.164 52.7852 119.438 51.9883C119.711 51.1914 120.102 50.5 120.609 49.9141C121.125 49.3281 121.75 48.8789 122.484 48.5664C123.219 48.2461 124.047 48.0859 124.969 48.0859C125.867 48.0859 126.664 48.2344 127.359 48.5312C128.055 48.8281 128.637 49.25 129.105 49.7969C129.582 50.3438 129.941 51 130.184 51.7656C130.426 52.5234 130.547 53.3672 130.547 54.2969V55.7031H120.469V53.4531H127.23V53.1953C127.23 52.7266 127.145 52.3086 126.973 51.9414C126.809 51.5664 126.559 51.2695 126.223 51.0508C125.887 50.832 125.457 50.7227 124.934 50.7227C124.488 50.7227 124.105 50.8203 123.785 51.0156C123.465 51.2109 123.203 51.4844 123 51.8359C122.805 52.1875 122.656 52.6016 122.555 53.0781C122.461 53.5469 122.414 54.0625 122.414 54.625V55.0938C122.414 55.6016 122.484 56.0703 122.625 56.5C122.773 56.9297 122.98 57.3008 123.246 57.6133C123.52 57.9258 123.848 58.168 124.23 58.3398C124.621 58.5117 125.062 58.5977 125.555 58.5977C126.164 58.5977 126.73 58.4805 127.254 58.2461C127.785 58.0039 128.242 57.6406 128.625 57.1562L130.266 58.9375C130 59.3203 129.637 59.6875 129.176 60.0391C128.723 60.3906 128.176 60.6797 127.535 60.9062C126.895 61.125 126.164 61.2344 125.344 61.2344ZM135.844 51.0859V61H132.469V48.3203H135.645L135.844 51.0859ZM139.664 48.2383L139.605 51.3672C139.441 51.3438 139.242 51.3242 139.008 51.3086C138.781 51.2852 138.574 51.2734 138.387 51.2734C137.91 51.2734 137.496 51.3359 137.145 51.4609C136.801 51.5781 136.512 51.7539 136.277 51.9883C136.051 52.2227 135.879 52.5078 135.762 52.8438C135.652 53.1797 135.59 53.5625 135.574 53.9922L134.895 53.7812C134.895 52.9609 134.977 52.207 135.141 51.5195C135.305 50.8242 135.543 50.2188 135.855 49.7031C136.176 49.1875 136.566 48.7891 137.027 48.5078C137.488 48.2266 138.016 48.0859 138.609 48.0859C138.797 48.0859 138.988 48.1016 139.184 48.1328C139.379 48.1562 139.539 48.1914 139.664 48.2383ZM154.383 46.8555L149.742 61H146.004L152.344 43.9375H154.723L154.383 46.8555ZM158.238 61L153.586 46.8555L153.211 43.9375H155.613L161.988 61H158.238ZM158.027 54.6484V57.4023H149.016V54.6484H158.027ZM167.66 61H164.262V47.1953C164.262 46.2344 164.449 45.4258 164.824 44.7695C165.207 44.1055 165.742 43.6055 166.43 43.2695C167.125 42.9258 167.949 42.7539 168.902 42.7539C169.215 42.7539 169.516 42.7773 169.805 42.8242C170.094 42.8633 170.375 42.9141 170.648 42.9766L170.613 45.5195C170.465 45.4805 170.309 45.4531 170.145 45.4375C169.98 45.4219 169.789 45.4141 169.57 45.4141C169.164 45.4141 168.816 45.4844 168.527 45.625C168.246 45.7578 168.031 45.957 167.883 46.2227C167.734 46.4883 167.66 46.8125 167.66 47.1953V61ZM170.191 48.3203V50.7109H162.375V48.3203H170.191ZM178.172 48.3203V50.7109H170.789V48.3203H178.172ZM172.617 45.1914H175.992V57.1797C175.992 57.5469 176.039 57.8281 176.133 58.0234C176.234 58.2188 176.383 58.3555 176.578 58.4336C176.773 58.5039 177.02 58.5391 177.316 58.5391C177.527 58.5391 177.715 58.5312 177.879 58.5156C178.051 58.4922 178.195 58.4688 178.312 58.4453L178.324 60.9297C178.035 61.0234 177.723 61.0977 177.387 61.1523C177.051 61.207 176.68 61.2344 176.273 61.2344C175.531 61.2344 174.883 61.1133 174.328 60.8711C173.781 60.6211 173.359 60.2227 173.062 59.6758C172.766 59.1289 172.617 58.4102 172.617 57.5195V45.1914ZM185.93 61.2344C184.945 61.2344 184.062 61.0781 183.281 60.7656C182.5 60.4453 181.836 60.0039 181.289 59.4414C180.75 58.8789 180.336 58.2266 180.047 57.4844C179.758 56.7344 179.613 55.9375 179.613 55.0938V54.625C179.613 53.6641 179.75 52.7852 180.023 51.9883C180.297 51.1914 180.688 50.5 181.195 49.9141C181.711 49.3281 182.336 48.8789 183.07 48.5664C183.805 48.2461 184.633 48.0859 185.555 48.0859C186.453 48.0859 187.25 48.2344 187.945 48.5312C188.641 48.8281 189.223 49.25 189.691 49.7969C190.168 50.3438 190.527 51 190.77 51.7656C191.012 52.5234 191.133 53.3672 191.133 54.2969V55.7031H181.055V53.4531H187.816V53.1953C187.816 52.7266 187.73 52.3086 187.559 51.9414C187.395 51.5664 187.145 51.2695 186.809 51.0508C186.473 50.832 186.043 50.7227 185.52 50.7227C185.074 50.7227 184.691 50.8203 184.371 51.0156C184.051 51.2109 183.789 51.4844 183.586 51.8359C183.391 52.1875 183.242 52.6016 183.141 53.0781C183.047 53.5469 183 54.0625 183 54.625V55.0938C183 55.6016 183.07 56.0703 183.211 56.5C183.359 56.9297 183.566 57.3008 183.832 57.6133C184.105 57.9258 184.434 58.168 184.816 58.3398C185.207 58.5117 185.648 58.5977 186.141 58.5977C186.75 58.5977 187.316 58.4805 187.84 58.2461C188.371 58.0039 188.828 57.6406 189.211 57.1562L190.852 58.9375C190.586 59.3203 190.223 59.6875 189.762 60.0391C189.309 60.3906 188.762 60.6797 188.121 60.9062C187.48 61.125 186.75 61.2344 185.93 61.2344ZM196.43 51.0859V61H193.055V48.3203H196.23L196.43 51.0859ZM200.25 48.2383L200.191 51.3672C200.027 51.3438 199.828 51.3242 199.594 51.3086C199.367 51.2852 199.16 51.2734 198.973 51.2734C198.496 51.2734 198.082 51.3359 197.73 51.4609C197.387 51.5781 197.098 51.7539 196.863 51.9883C196.637 52.2227 196.465 52.5078 196.348 52.8438C196.238 53.1797 196.176 53.5625 196.16 53.9922L195.48 53.7812C195.48 52.9609 195.562 52.207 195.727 51.5195C195.891 50.8242 196.129 50.2188 196.441 49.7031C196.762 49.1875 197.152 48.7891 197.613 48.5078C198.074 48.2266 198.602 48.0859 199.195 48.0859C199.383 48.0859 199.574 48.1016 199.77 48.1328C199.965 48.1562 200.125 48.1914 200.25 48.2383ZM219.48 58.2578V61H210.398V58.2578H219.48ZM211.547 43.9375V61H208.031V43.9375H211.547ZM218.297 50.8867V53.5586H210.398V50.8867H218.297ZM219.469 43.9375V46.6914H210.398V43.9375H219.469ZM224.883 43V61H221.496V43H224.883ZM233.508 61.2344C232.523 61.2344 231.641 61.0781 230.859 60.7656C230.078 60.4453 229.414 60.0039 228.867 59.4414C228.328 58.8789 227.914 58.2266 227.625 57.4844C227.336 56.7344 227.191 55.9375 227.191 55.0938V54.625C227.191 53.6641 227.328 52.7852 227.602 51.9883C227.875 51.1914 228.266 50.5 228.773 49.9141C229.289 49.3281 229.914 48.8789 230.648 48.5664C231.383 48.2461 232.211 48.0859 233.133 48.0859C234.031 48.0859 234.828 48.2344 235.523 48.5312C236.219 48.8281 236.801 49.25 237.27 49.7969C237.746 50.3438 238.105 51 238.348 51.7656C238.59 52.5234 238.711 53.3672 238.711 54.2969V55.7031H228.633V53.4531H235.395V53.1953C235.395 52.7266 235.309 52.3086 235.137 51.9414C234.973 51.5664 234.723 51.2695 234.387 51.0508C234.051 50.832 233.621 50.7227 233.098 50.7227C232.652 50.7227 232.27 50.8203 231.949 51.0156C231.629 51.2109 231.367 51.4844 231.164 51.8359C230.969 52.1875 230.82 52.6016 230.719 53.0781C230.625 53.5469 230.578 54.0625 230.578 54.625V55.0938C230.578 55.6016 230.648 56.0703 230.789 56.5C230.938 56.9297 231.145 57.3008 231.41 57.6133C231.684 57.9258 232.012 58.168 232.395 58.3398C232.785 58.5117 233.227 58.5977 233.719 58.5977C234.328 58.5977 234.895 58.4805 235.418 58.2461C235.949 58.0039 236.406 57.6406 236.789 57.1562L238.43 58.9375C238.164 59.3203 237.801 59.6875 237.34 60.0391C236.887 60.3906 236.34 60.6797 235.699 60.9062C235.059 61.125 234.328 61.2344 233.508 61.2344ZM248.66 48.3203H251.719V60.5781C251.719 61.7344 251.461 62.7148 250.945 63.5195C250.438 64.332 249.727 64.9453 248.812 65.3594C247.898 65.7812 246.836 65.9922 245.625 65.9922C245.094 65.9922 244.531 65.9219 243.938 65.7812C243.352 65.6406 242.789 65.4219 242.25 65.125C241.719 64.8281 241.273 64.4531 240.914 64L242.402 62.0078C242.793 62.4609 243.246 62.8125 243.762 63.0625C244.277 63.3203 244.848 63.4492 245.473 63.4492C246.082 63.4492 246.598 63.3359 247.02 63.1094C247.441 62.8906 247.766 62.5664 247.992 62.1367C248.219 61.7148 248.332 61.2031 248.332 60.6016V51.25L248.66 48.3203ZM240.129 54.8125V54.5664C240.129 53.5977 240.246 52.7188 240.48 51.9297C240.723 51.1328 241.062 50.4492 241.5 49.8789C241.945 49.3086 242.484 48.8672 243.117 48.5547C243.75 48.2422 244.465 48.0859 245.262 48.0859C246.105 48.0859 246.812 48.2422 247.383 48.5547C247.953 48.8672 248.422 49.3125 248.789 49.8906C249.156 50.4609 249.441 51.1367 249.645 51.918C249.855 52.6914 250.02 53.5391 250.137 54.4609V55C250.02 55.8828 249.844 56.7031 249.609 57.4609C249.375 58.2188 249.066 58.8828 248.684 59.4531C248.301 60.0156 247.824 60.4531 247.254 60.7656C246.691 61.0781 246.02 61.2344 245.238 61.2344C244.457 61.2344 243.75 61.0742 243.117 60.7539C242.492 60.4336 241.957 59.9844 241.512 59.4062C241.066 58.8281 240.723 58.1484 240.48 57.3672C240.246 56.5859 240.129 55.7344 240.129 54.8125ZM243.504 54.5664V54.8125C243.504 55.3359 243.555 55.8242 243.656 56.2773C243.758 56.7305 243.914 57.1328 244.125 57.4844C244.344 57.8281 244.613 58.0977 244.934 58.293C245.262 58.4805 245.648 58.5742 246.094 58.5742C246.711 58.5742 247.215 58.4453 247.605 58.1875C247.996 57.9219 248.289 57.5586 248.484 57.0977C248.68 56.6367 248.793 56.1055 248.824 55.5039V53.9688C248.809 53.4766 248.742 53.0352 248.625 52.6445C248.508 52.2461 248.344 51.9062 248.133 51.625C247.922 51.3438 247.648 51.125 247.312 50.9688C246.977 50.8125 246.578 50.7344 246.117 50.7344C245.672 50.7344 245.285 50.8359 244.957 51.0391C244.637 51.2344 244.367 51.5039 244.148 51.8477C243.938 52.1914 243.777 52.5977 243.668 53.0664C243.559 53.5273 243.504 54.0273 243.504 54.5664ZM261.188 58.1406V52.4922C261.188 52.0859 261.121 51.7383 260.988 51.4492C260.855 51.1523 260.648 50.9219 260.367 50.7578C260.094 50.5938 259.738 50.5117 259.301 50.5117C258.926 50.5117 258.602 50.5781 258.328 50.7109C258.055 50.8359 257.844 51.0195 257.695 51.2617C257.547 51.4961 257.473 51.7734 257.473 52.0938H254.098C254.098 51.5547 254.223 51.043 254.473 50.5586C254.723 50.0742 255.086 49.6484 255.562 49.2812C256.039 48.9062 256.605 48.6133 257.262 48.4023C257.926 48.1914 258.668 48.0859 259.488 48.0859C260.473 48.0859 261.348 48.25 262.113 48.5781C262.879 48.9062 263.48 49.3984 263.918 50.0547C264.363 50.7109 264.586 51.5312 264.586 52.5156V57.9414C264.586 58.6367 264.629 59.207 264.715 59.6523C264.801 60.0898 264.926 60.4727 265.09 60.8008V61H261.68C261.516 60.6562 261.391 60.2266 261.305 59.7109C261.227 59.1875 261.188 58.6641 261.188 58.1406ZM261.633 53.2773L261.656 55.1875H259.77C259.324 55.1875 258.938 55.2383 258.609 55.3398C258.281 55.4414 258.012 55.5859 257.801 55.7734C257.59 55.9531 257.434 56.1641 257.332 56.4062C257.238 56.6484 257.191 56.9141 257.191 57.2031C257.191 57.4922 257.258 57.7539 257.391 57.9883C257.523 58.2148 257.715 58.3945 257.965 58.5273C258.215 58.6523 258.508 58.7148 258.844 58.7148C259.352 58.7148 259.793 58.6133 260.168 58.4102C260.543 58.207 260.832 57.957 261.035 57.6602C261.246 57.3633 261.355 57.082 261.363 56.8164L262.254 58.2461C262.129 58.5664 261.957 58.8984 261.738 59.2422C261.527 59.5859 261.258 59.9102 260.93 60.2148C260.602 60.5117 260.207 60.7578 259.746 60.9531C259.285 61.1406 258.738 61.2344 258.105 61.2344C257.301 61.2344 256.57 61.0742 255.914 60.7539C255.266 60.4258 254.75 59.9766 254.367 59.4062C253.992 58.8281 253.805 58.1719 253.805 57.4375C253.805 56.7734 253.93 56.1836 254.18 55.668C254.43 55.1523 254.797 54.7188 255.281 54.3672C255.773 54.0078 256.387 53.7383 257.121 53.5586C257.855 53.3711 258.707 53.2773 259.676 53.2773H261.633ZM270.492 51.0273V61H267.117V48.3203H270.281L270.492 51.0273ZM270 54.2148H269.086C269.086 53.2773 269.207 52.4336 269.449 51.6836C269.691 50.9258 270.031 50.2812 270.469 49.75C270.906 49.2109 271.426 48.8008 272.027 48.5195C272.637 48.2305 273.316 48.0859 274.066 48.0859C274.66 48.0859 275.203 48.1719 275.695 48.3438C276.188 48.5156 276.609 48.7891 276.961 49.1641C277.32 49.5391 277.594 50.0352 277.781 50.6523C277.977 51.2695 278.074 52.0234 278.074 52.9141V61H274.676V52.9023C274.676 52.3398 274.598 51.9023 274.441 51.5898C274.285 51.2773 274.055 51.0586 273.75 50.9336C273.453 50.8008 273.086 50.7344 272.648 50.7344C272.195 50.7344 271.801 50.8242 271.465 51.0039C271.137 51.1836 270.863 51.4336 270.645 51.7539C270.434 52.0664 270.273 52.4336 270.164 52.8555C270.055 53.2773 270 53.7305 270 54.2148ZM285.879 58.5977C286.293 58.5977 286.66 58.5195 286.98 58.3633C287.301 58.1992 287.551 57.9727 287.73 57.6836C287.918 57.3867 288.016 57.0391 288.023 56.6406H291.199C291.191 57.5312 290.953 58.3242 290.484 59.0195C290.016 59.707 289.387 60.25 288.598 60.6484C287.809 61.0391 286.926 61.2344 285.949 61.2344C284.965 61.2344 284.105 61.0703 283.371 60.7422C282.645 60.4141 282.039 59.9609 281.555 59.3828C281.07 58.7969 280.707 58.1172 280.465 57.3438C280.223 56.5625 280.102 55.7266 280.102 54.8359V54.4961C280.102 53.5977 280.223 52.7617 280.465 51.9883C280.707 51.207 281.07 50.5273 281.555 49.9492C282.039 49.3633 282.645 48.9062 283.371 48.5781C284.098 48.25 284.949 48.0859 285.926 48.0859C286.965 48.0859 287.875 48.2852 288.656 48.6836C289.445 49.082 290.062 49.6523 290.508 50.3945C290.961 51.1289 291.191 52 291.199 53.0078H288.023C288.016 52.5859 287.926 52.2031 287.754 51.8594C287.59 51.5156 287.348 51.2422 287.027 51.0391C286.715 50.8281 286.328 50.7227 285.867 50.7227C285.375 50.7227 284.973 50.8281 284.66 51.0391C284.348 51.2422 284.105 51.5234 283.934 51.8828C283.762 52.2344 283.641 52.6367 283.57 53.0898C283.508 53.5352 283.477 54.0039 283.477 54.4961V54.8359C283.477 55.3281 283.508 55.8008 283.57 56.2539C283.633 56.707 283.75 57.1094 283.922 57.4609C284.102 57.8125 284.348 58.0898 284.66 58.293C284.973 58.4961 285.379 58.5977 285.879 58.5977ZM298.992 61.2344C298.008 61.2344 297.125 61.0781 296.344 60.7656C295.562 60.4453 294.898 60.0039 294.352 59.4414C293.812 58.8789 293.398 58.2266 293.109 57.4844C292.82 56.7344 292.676 55.9375 292.676 55.0938V54.625C292.676 53.6641 292.812 52.7852 293.086 51.9883C293.359 51.1914 293.75 50.5 294.258 49.9141C294.773 49.3281 295.398 48.8789 296.133 48.5664C296.867 48.2461 297.695 48.0859 298.617 48.0859C299.516 48.0859 300.312 48.2344 301.008 48.5312C301.703 48.8281 302.285 49.25 302.754 49.7969C303.23 50.3438 303.59 51 303.832 51.7656C304.074 52.5234 304.195 53.3672 304.195 54.2969V55.7031H294.117V53.4531H300.879V53.1953C300.879 52.7266 300.793 52.3086 300.621 51.9414C300.457 51.5664 300.207 51.2695 299.871 51.0508C299.535 50.832 299.105 50.7227 298.582 50.7227C298.137 50.7227 297.754 50.8203 297.434 51.0156C297.113 51.2109 296.852 51.4844 296.648 51.8359C296.453 52.1875 296.305 52.6016 296.203 53.0781C296.109 53.5469 296.062 54.0625 296.062 54.625V55.0938C296.062 55.6016 296.133 56.0703 296.273 56.5C296.422 56.9297 296.629 57.3008 296.895 57.6133C297.168 57.9258 297.496 58.168 297.879 58.3398C298.27 58.5117 298.711 58.5977 299.203 58.5977C299.812 58.5977 300.379 58.4805 300.902 58.2461C301.434 58.0039 301.891 57.6406 302.273 57.1562L303.914 58.9375C303.648 59.3203 303.285 59.6875 302.824 60.0391C302.371 60.3906 301.824 60.6797 301.184 60.9062C300.543 61.125 299.812 61.2344 298.992 61.2344Z" fill="#888888"/>
<path d="M118.594 98.4219V104.75H101.086V98.4219H118.594ZM103.828 84.875V119H95.6016V84.875H103.828ZM124.125 84.875V119H115.922V84.875H124.125ZM127.992 106.578V106.086C127.992 104.227 128.258 102.516 128.789 100.953C129.32 99.375 130.102 98.0078 131.133 96.8516C132.164 95.6953 133.438 94.7969 134.953 94.1562C136.469 93.5 138.219 93.1719 140.203 93.1719C142.203 93.1719 143.961 93.5 145.477 94.1562C147.008 94.7969 148.289 95.6953 149.32 96.8516C150.352 98.0078 151.133 99.375 151.664 100.953C152.195 102.516 152.461 104.227 152.461 106.086V106.578C152.461 108.422 152.195 110.133 151.664 111.711C151.133 113.273 150.352 114.641 149.32 115.812C148.289 116.969 147.016 117.867 145.5 118.508C143.984 119.148 142.234 119.469 140.25 119.469C138.266 119.469 136.508 119.148 134.977 118.508C133.445 117.867 132.164 116.969 131.133 115.812C130.102 114.641 129.32 113.273 128.789 111.711C128.258 110.133 127.992 108.422 127.992 106.578ZM135.891 106.086V106.578C135.891 107.531 135.961 108.422 136.102 109.25C136.242 110.078 136.477 110.805 136.805 111.43C137.133 112.039 137.578 112.516 138.141 112.859C138.703 113.203 139.406 113.375 140.25 113.375C141.078 113.375 141.766 113.203 142.312 112.859C142.875 112.516 143.32 112.039 143.648 111.43C143.977 110.805 144.211 110.078 144.352 109.25C144.492 108.422 144.562 107.531 144.562 106.578V106.086C144.562 105.164 144.492 104.297 144.352 103.484C144.211 102.656 143.977 101.93 143.648 101.305C143.32 100.664 142.875 100.164 142.312 99.8047C141.75 99.4453 141.047 99.2656 140.203 99.2656C139.375 99.2656 138.68 99.4453 138.117 99.8047C137.57 100.164 137.133 100.664 136.805 101.305C136.477 101.93 136.242 102.656 136.102 103.484C135.961 104.297 135.891 105.164 135.891 106.086ZM163.688 111.453L168.375 93.6406H173.32L171.562 102.57L166.922 119H162.961L163.688 111.453ZM161.836 93.6406L164.742 111.312L165.07 119H160.266L154.266 93.6406H161.836ZM177.492 110.938L180.422 93.6406H187.992L182.039 119H177.234L177.492 110.938ZM173.883 93.6406L178.617 111.406L179.344 119H175.336L170.789 102.617L169.102 93.6406H173.883ZM218.297 84.875V119H210.07V84.875H218.297ZM228.562 84.875V91.2266H200.039V84.875H228.562ZM225.773 106.578V106.086C225.773 104.227 226.039 102.516 226.57 100.953C227.102 99.375 227.883 98.0078 228.914 96.8516C229.945 95.6953 231.219 94.7969 232.734 94.1562C234.25 93.5 236 93.1719 237.984 93.1719C239.984 93.1719 241.742 93.5 243.258 94.1562C244.789 94.7969 246.07 95.6953 247.102 96.8516C248.133 98.0078 248.914 99.375 249.445 100.953C249.977 102.516 250.242 104.227 250.242 106.086V106.578C250.242 108.422 249.977 110.133 249.445 111.711C248.914 113.273 248.133 114.641 247.102 115.812C246.07 116.969 244.797 117.867 243.281 118.508C241.766 119.148 240.016 119.469 238.031 119.469C236.047 119.469 234.289 119.148 232.758 118.508C231.227 117.867 229.945 116.969 228.914 115.812C227.883 114.641 227.102 113.273 226.57 111.711C226.039 110.133 225.773 108.422 225.773 106.578ZM233.672 106.086V106.578C233.672 107.531 233.742 108.422 233.883 109.25C234.023 110.078 234.258 110.805 234.586 111.43C234.914 112.039 235.359 112.516 235.922 112.859C236.484 113.203 237.188 113.375 238.031 113.375C238.859 113.375 239.547 113.203 240.094 112.859C240.656 112.516 241.102 112.039 241.43 111.43C241.758 110.805 241.992 110.078 242.133 109.25C242.273 108.422 242.344 107.531 242.344 106.578V106.086C242.344 105.164 242.273 104.297 242.133 103.484C241.992 102.656 241.758 101.93 241.43 101.305C241.102 100.664 240.656 100.164 240.094 99.8047C239.531 99.4453 238.828 99.2656 237.984 99.2656C237.156 99.2656 236.461 99.4453 235.898 99.8047C235.352 100.164 234.914 100.664 234.586 101.305C234.258 101.93 234.023 102.656 233.883 103.484C233.742 104.297 233.672 105.164 233.672 106.086ZM266.086 84.875H279.516C282.141 84.875 284.422 85.2656 286.359 86.0469C288.297 86.8281 289.789 87.9844 290.836 89.5156C291.898 91.0469 292.43 92.9375 292.43 95.1875C292.43 97.1406 292.125 98.7734 291.516 100.086C290.906 101.398 290.055 102.484 288.961 103.344C287.883 104.188 286.625 104.883 285.188 105.43L282.492 106.953H271.219L271.172 100.602H279.516C280.562 100.602 281.43 100.414 282.117 100.039C282.805 99.6641 283.32 99.1328 283.664 98.4453C284.023 97.7422 284.203 96.9062 284.203 95.9375C284.203 94.9531 284.023 94.1094 283.664 93.4062C283.305 92.7031 282.773 92.1641 282.07 91.7891C281.383 91.4141 280.531 91.2266 279.516 91.2266H274.312V119H266.086V84.875ZM284.766 119L277.219 103.906L285.938 103.859L293.578 118.648V119H284.766ZM311.836 112.836V93.6406H319.758V119H312.352L311.836 112.836ZM312.586 107.68L314.648 107.633C314.648 109.336 314.445 110.914 314.039 112.367C313.633 113.805 313.031 115.055 312.234 116.117C311.453 117.18 310.484 118.008 309.328 118.602C308.188 119.18 306.867 119.469 305.367 119.469C304.117 119.469 302.969 119.297 301.922 118.953C300.891 118.594 300 118.039 299.25 117.289C298.5 116.523 297.914 115.547 297.492 114.359C297.086 113.156 296.883 111.719 296.883 110.047V93.6406H304.781V110.094C304.781 110.656 304.852 111.141 304.992 111.547C305.133 111.953 305.336 112.297 305.602 112.578C305.867 112.844 306.195 113.047 306.586 113.188C306.992 113.312 307.453 113.375 307.969 113.375C309.156 113.375 310.086 113.125 310.758 112.625C311.43 112.125 311.898 111.445 312.164 110.586C312.445 109.727 312.586 108.758 312.586 107.68ZM331.875 99.0547V119H323.977V93.6406H331.383L331.875 99.0547ZM330.938 105.453L329.086 105.5C329.086 103.562 329.32 101.836 329.789 100.32C330.258 98.7891 330.922 97.4922 331.781 96.4297C332.641 95.3672 333.664 94.5625 334.852 94.0156C336.055 93.4531 337.391 93.1719 338.859 93.1719C340.031 93.1719 341.102 93.3438 342.07 93.6875C343.055 94.0312 343.898 94.5859 344.602 95.3516C345.32 96.1172 345.867 97.1328 346.242 98.3984C346.633 99.6484 346.828 101.195 346.828 103.039V119H338.883V103.016C338.883 102 338.742 101.227 338.461 100.695C338.18 100.148 337.773 99.7734 337.242 99.5703C336.711 99.3672 336.062 99.2656 335.297 99.2656C334.484 99.2656 333.797 99.4219 333.234 99.7344C332.672 100.047 332.219 100.484 331.875 101.047C331.547 101.594 331.305 102.242 331.148 102.992C331.008 103.742 330.938 104.562 330.938 105.453ZM363.773 108.195H357.047C357.047 106.82 357.141 105.609 357.328 104.562C357.531 103.5 357.875 102.547 358.359 101.703C358.844 100.859 359.5 100.078 360.328 99.3594C361.062 98.75 361.695 98.1641 362.227 97.6016C362.758 97.0391 363.164 96.4688 363.445 95.8906C363.727 95.3125 363.867 94.6953 363.867 94.0391C363.867 93.2266 363.75 92.5625 363.516 92.0469C363.297 91.5312 362.961 91.1484 362.508 90.8984C362.07 90.6328 361.516 90.5 360.844 90.5C360.297 90.5 359.781 90.6328 359.297 90.8984C358.828 91.1641 358.445 91.5781 358.148 92.1406C357.852 92.6875 357.688 93.4141 357.656 94.3203H349.711C349.758 91.9922 350.273 90.1016 351.258 88.6484C352.258 87.1797 353.586 86.1094 355.242 85.4375C356.914 84.75 358.781 84.4062 360.844 84.4062C363.125 84.4062 365.086 84.7578 366.727 85.4609C368.367 86.1641 369.625 87.2109 370.5 88.6016C371.375 89.9766 371.812 91.6719 371.812 93.6875C371.812 95.0312 371.555 96.2031 371.039 97.2031C370.539 98.1875 369.859 99.1094 369 99.9688C368.156 100.812 367.211 101.719 366.164 102.688C365.258 103.484 364.641 104.297 364.312 105.125C363.984 105.938 363.805 106.961 363.773 108.195ZM356.086 115.32C356.086 114.195 356.492 113.258 357.305 112.508C358.117 111.742 359.172 111.359 360.469 111.359C361.766 111.359 362.82 111.742 363.633 112.508C364.445 113.258 364.852 114.195 364.852 115.32C364.852 116.445 364.445 117.391 363.633 118.156C362.82 118.906 361.766 119.281 360.469 119.281C359.172 119.281 358.117 118.906 357.305 118.156C356.492 117.391 356.086 116.445 356.086 115.32Z" fill="black"/>
<path d="M1134 0H1348C1356.28 0 1363 6.71573 1363 15V148C1363 156.284 1356.28 163 1348 163H1134V0Z" fill="#CFAD5C"/>
<path d="M1260.62 78.8847C1263.81 78.8847 1266.93 79.805 1269.59 81.5293C1272.25 83.2536 1274.32 85.7044 1275.54 88.5718C1276.76 91.4391 1277.08 94.5943 1276.46 97.6383C1275.84 100.682 1274.3 103.478 1272.04 105.673C1269.78 107.868 1266.9 109.362 1263.77 109.968C1260.63 110.573 1257.39 110.262 1254.43 109.075C1251.48 107.887 1248.96 105.876 1247.18 103.295C1245.41 100.714 1244.46 97.6806 1244.46 94.5769C1244.46 90.4151 1246.16 86.4237 1249.19 83.4808C1252.22 80.538 1256.33 78.8847 1260.62 78.8847ZM1260.62 73.6539C1256.36 73.6539 1252.19 74.881 1248.65 77.1801C1245.11 79.4791 1242.35 82.7469 1240.72 86.57C1239.09 90.3932 1238.66 94.6001 1239.49 98.6588C1240.32 102.717 1242.37 106.446 1245.39 109.372C1248.4 112.298 1252.24 114.291 1256.41 115.098C1260.59 115.905 1264.92 115.491 1268.86 113.907C1272.79 112.324 1276.16 109.642 1278.52 106.201C1280.89 102.76 1282.15 98.7151 1282.15 94.5769C1282.15 89.0278 1279.88 83.706 1275.85 79.7821C1271.81 75.8583 1266.33 73.6539 1260.62 73.6539Z" fill="white"/>
<path d="M1274.08 47.5H1220.23C1218.8 47.5 1217.43 48.0511 1216.42 49.0321C1215.41 50.013 1214.85 51.3435 1214.85 52.7307V105.038C1214.85 106.426 1215.41 107.756 1216.42 108.737C1217.43 109.718 1218.8 110.269 1220.23 110.269H1231V105.038H1220.23V68.423H1279.46V52.7307C1279.46 51.3435 1278.89 50.013 1277.88 49.0321C1276.87 48.0511 1275.5 47.5 1274.08 47.5ZM1220.23 63.1922V52.7307H1274.08V63.1922H1220.23Z" fill="white"/>
<path d="M1255.23 86.731V102.423L1268.69 94.5771L1255.23 86.731Z" fill="white"/>
</svg>
